<?xml version="1.0" encoding="UTF-8"?>
<svg id="Layer_1" data-name="Layer 1" xmlns="http://www.w3.org/2000/svg" version="1.1" viewBox="0 0 333.1 95.4">
  <defs>
    <style>
      .cls-1 {
        fill: #fff;
        stroke-width: 0px;
      }
    </style>
  </defs>
  <g>
    <path class="cls-1" d="M48.3,94.4l-8.1-65-8.3,65h-7.6L35.9,9.5h9.2l11,84.9h-7.8Z"/>
    <polygon class="cls-1" points="153.3 95.2 145.9 35.4 138.2 95.2 129.1 95.2 140.9 8.8 151.4 8.8 162.6 95.2 153.3 95.2"/>
    <path class="cls-1" d="M79.3,94.4c-1.8-13.3-3.6-26.5-6-39.4-.7.1-1.1.1-1.9.1h-4.2v39.3h-7.8V9.5h12.9c9.9,0,14.8,4.1,14.8,15.3v16.9c0,6.2-2.1,10.3-6.3,12.5,2.8,13.7,5.1,26.9,7.1,40.2h-8.6ZM79.1,25.8c0-6.2-1.3-8.4-6.8-8.4h-5.1v29.8h5.2c4.8,0,6.7-2.2,6.7-7v-14.4Z"/>
    <polygon class="cls-1" points="113.7 95.2 100.1 57 100.1 95.2 90.8 95.2 90.8 8.8 100.1 8.8 100.1 42.2 113.2 8.8 123.3 8.8 106.9 48.2 124.3 95.2 113.7 95.2"/>
    <g>
      <path class="cls-1" d="M185.5,95.2l-13.3-56.1c0,10.5,0,20.5,0,31v25.1h-8.3V8.8h10.7l11.6,55.4c0-9,0-17.7,0-26.8V8.8h8.4v86.4h-9.2Z"/>
      <g>
        <path class="cls-1" d="M121.1,15.9l-2.2,5.2c3.9,2.7,10.1,4.9,18.7,5.8l.7-5.4c-6.6-.7-13.5-2.3-17.3-5.6Z"/>
        <path class="cls-1" d="M153.8,21.4l.7,5.4c3.3-.4,6.2-.9,8.7-1.6v-5.6c-2.9.9-6.2,1.5-9.4,1.9Z"/>
        <path class="cls-1" d="M122.2,8h2.2l-.7,1.6c5.9-3.1,15.2-4.2,22.1-4.2,5.5,0,12.7.7,18.3,2.6h10.7C170.6,3.6,160.9.1,145.9,0c-15.1.1-24.7,3.6-29,8h5.3Z"/>
        <path class="cls-1" d="M175.6,9.2l1.4,6.8c.9-2.4.4-5-1.5-7.3v.5Z"/>
      </g>
    </g>
    <path class="cls-1" d="M223.3,94.9l-1.4-4.6c-1.7,3.3-5.7,5.1-10.3,5.1-7.3,0-12.8-3.6-12.8-14.4V23.1c0-9.5,4.3-14.5,13.4-14.5s12.9,5.1,12.9,14.5v15h-7v-15c0-4.4-1.7-6.6-5.9-6.6s-5.6,2.2-5.6,6.6v57.8c0,4.4,2.3,6.7,5.5,6.7s5.8-2.1,6.1-6.1v-26.4c0,0-6.4,0-6.4,0v-7.9c0,0,14,0,14,0v47.7h-2.4Z"/>
    <path class="cls-1" d="M230.6,94.4V9.5h22.5v7.9h-14.6v29.8h10.3v7.8h-10.3v31.6h15.2v7.7h-23Z"/>
    <path class="cls-1" d="M257.5,94.4V9.5h7.8v77.2h15.2v7.7h-23Z"/>
    <path class="cls-1" d="M300.9,69.3c0-5.2-.5-6.2-2.6-8.8-4.3-5.4-10.2-10.3-13.2-14.1-2.6-3.3-2.8-5.4-2.8-11v-12.7c0-9.5,4.4-14,13.5-14s12.6,4.6,12.6,14v16.6h-7.3v-15.6c0-4.2-1.1-7.1-5.4-7.1s-5.5,2.1-5.5,6.1v12.6c0,3.6.3,4.6,1.9,6.6,3.7,4.8,9.7,9.8,12.9,13.8,2.8,3.5,3.7,6.1,3.7,13.5v12.2c0,9-3.7,14-13.1,14s-13.3-4.8-13.3-14v-19.2h7.5v18.1c0,4.5,1.3,7.4,5.7,7.4s5.4-2.3,5.4-6.3v-12.1Z"/>
  </g>
  <rect class="cls-1" y="47.3" width="333.1" height="7.9"/>
</svg>