<?xml version="1.0" encoding="UTF-8"?>
<svg id="Layer_1" xmlns="http://www.w3.org/2000/svg" xmlns:xlink="http://www.w3.org/1999/xlink" version="1.1" viewBox="0 0 1416.4 323.9">
  <!-- Generator: Adobe Illustrator 29.5.0, SVG Export Plug-In . SVG Version: 2.1.0 Build 15)  -->
  <defs>
    <style>
      .st0 {
        fill: url(#linear-gradient);
      }

      .st1, .st2 {
        fill: #5a101d;
        stroke: #5a101d;
        stroke-linecap: round;
        stroke-linejoin: round;
        stroke-width: 24px;
      }

      .st1, .st3 {
        fill-rule: evenodd;
      }

      .st3 {
        fill: #f9f3d7;
      }
    </style>
    <linearGradient id="linear-gradient" x1="713.6" y1="18" x2="713.6" y2="300.9" gradientUnits="userSpaceOnUse">
      <stop offset="0" stop-color="#944b00"/>
      <stop offset=".2" stop-color="#fff7b2"/>
      <stop offset=".3" stop-color="#944b00"/>
      <stop offset=".7" stop-color="#9a550a"/>
      <stop offset=".8" stop-color="#fff7b2"/>
      <stop offset=".8" stop-color="#985207"/>
      <stop offset="1" stop-color="#e9b23e"/>
    </linearGradient>
  </defs>
  <g>
    <path class="st1" d="M1369.4,296.2c-.4,0-.9,0-1.3-.2-22.4-6.1-45.2-11.9-67.8-17.3-1.9-.4-3.3-1.9-3.7-3.8s.3-3.8,1.8-5c5.5-4.3,9.3-10.8,11.4-19.2,7.1-28.8,14.3-57.5,21.4-86.2.5-2.2-.2-5-2.3-8.1-2.1-3.3-4.7-5.2-7.7-5.9-1.2-.3-2.4-.4-3.6-.4-3.3,0-6.7,1.1-10.1,3.3h0c-4.6,2.8-7.3,6.1-8.2,10.1-6.1,27.2-12.1,54.5-18.2,81.7-2.1,9.1-1.9,16,.5,20.7.9,1.7.7,3.8-.5,5.3-1,1.2-2.4,1.9-3.9,1.9s-.7,0-1.1-.1c-22-5.1-44.5-9.9-66.6-14.3-1.8-.4-3.3-1.7-3.8-3.5-.5-1.8,0-3.7,1.2-5,5.7-5.7,9.3-11.8,10.5-18.2,5.5-27.4,10.9-54.7,16.4-82.1.8-4.1.4-8.6-1.4-13.3-1.9-4.6-4.7-7.1-8.9-7.9-1.1-.2-2.1-.3-3.2-.3s-2.8.2-4.2.5c-2.7.7-5.2,1.7-7.6,3.2-2.3,1.4-4.3,3.1-5.8,5-1.4,1.7-2.3,3.5-2.6,5.4l-15.1,81.5c-.2,1.1-.4,4.1.6,11.4,1.5,8.4,2.5,10.3,2.6,10.5,1.1,1.7,1.1,3.8,0,5.5-.9,1.4-2.5,2.2-4.1,2.2h-.9c-22.6-4.3-45.6-8.3-68.3-11.9-1.8-.3-3.3-1.5-3.9-3.2-.9,1.2-2.4,1.9-3.9,1.9s-.5,0-.8,0c-21-3.3-42.3-6.3-63.4-9-2.7-.4-4.7-2.9-4.3-5.6l.8-6.3c-2.1.9-4,1.8-5.8,2.6-4.3,1.8-8.1,3.1-11.5,4h-.2c-5.4,1.2-11.3,1.8-17.5,1.8s-7.4-.2-11.2-.6c-6.7-.7-13.2-2.9-19.1-6.3-19.8-11.4-29-28.2-27.1-49.9l6.5-73.9c1-11.4-.4-20-4.2-25.6-1.1-1.6-1.2-3.7-.2-5.4.9-1.6,2.6-2.5,4.3-2.5s.3,0,.4,0c21.3,1.8,42.8,3.9,64,6.3,2.7.3,4.7,2.8,4.4,5.5l-.4,3.7-1.5,10.8-10,90.6c-.5,4.7.2,8.9,2.3,12.7,2,3.7,5.1,5.7,9.8,6.2.7,0,1.3.1,2,.1,4.2,0,8.2-1.6,12.2-4.9h0c4.9-3.9,7.6-7.9,8.1-12.3l9.7-75.1c1.4-10.8.2-19.2-3.6-25.2-1.1-1.6-1.1-3.7,0-5.4.9-1.5,2.5-2.3,4.2-2.3s.4,0,.6,0c21.7,2.7,43.8,5.8,65.5,9.1,1.3.2,2.5.9,3.3,2s1.1,2.4.9,3.7l-18.6,122.3c-1.3,8.3.2,15.2,4.3,20.9.3.4.5.7.6,1.1.3-.3.6-.6.9-.9,5.2-3.9,8.5-10,9.9-18.7l16-98.2c1.3-8,.2-15.2-3.5-21.9-.9-1.7-.8-3.7.3-5.3.9-1.3,2.5-2.1,4.1-2.1s.5,0,.8,0c20.8,3.4,41.7,7.1,62.4,11,2.7.5,4.5,3.1,4,5.8l-.3,1.8c3.8-1.5,8.3-2.6,13.4-3.3,3.2-.4,6.6-.7,10-.7,5.4,0,11,.6,16.6,1.7,12.9,2.6,22.9,5.9,29.8,9.8h0c5.9,3.5,12.4,9.8,19.5,18.7,1.8-.6,3.7-1.3,5.7-1.9,3.4-1.1,7.3-2.3,11.7-3.5h.3c5.3-1.1,10.8-1.7,16.3-1.7s15.1,1,22.9,2.9c25.3,6.3,40.1,21.7,42.5,44.7h0c.5,6.2.2,11-.8,14.9l-11.3,42.1c-2.6,8.9-4.9,17-6.8,24l-4.7,17.6c-1.6,5.9-.8,12,2.3,18.5.8,1.8.6,3.9-.7,5.4-1,1.2-2.4,1.8-3.8,1.8l.3.2ZM88.6,296c-1.4,0-2.9-.6-3.8-1.8-1.3-1.5-1.5-3.6-.7-5.3.8-1.7,1.9-5.5,2.4-13.9.4-6.3,0-11.4-.9-15l-35.5-130.5c-2.3-8.5-7.8-16.9-16.4-24.9-1.3-1.2-1.9-3.1-1.4-4.9.4-1.8,1.8-3.1,3.5-3.6,29.1-7.9,58.7-15.5,88.1-22.4.4,0,.8,0,1.1,0,1.6,0,3.1.7,4,2,1.2,1.6,1.3,3.8.3,5.5-5.7,9.8-7.5,18.9-5.3,27.7l8.8,35.8c4.6-1.6,8.9-4.3,12.8-8,.1,0,.2-.2.3-.3.6-.5,2.6-2.5,7.8-10.1,0,0,0,0,.1-.2,2.4-3.2,4.1-5.7,5.3-7.4,1.3-1.9,1.8-2.7,1.9-2.9,1.1-2.8,2-5.2,2.8-7.3,1.7-5,3.4-10.1,5.2-15.1v-.2c1.1-2.8,2.1-5.3,2.9-7.6,0,0,0-.2.1-.3,5.9-13.1,13.6-22.5,22.9-28.1,6.6-3.8,15.1-6.8,25.3-8.8,5.3-1.1,10.3-1.6,14.9-1.6,11.1,0,20.1,3.2,26.6,9.4,1.9,1.8,2,4.8.4,6.8-1.8,2.2-5,4-10,5.6-3.2,1-5.8,2.6-8,5h0c-1.9,1.9-3.8,4.5-5.6,7.7-2,3.4-4,7.4-6,12-2.4,6.3-7,14.9-14,26.3-3.3,5.4-9.7,11.6-19.5,18.9-3.1,2.4-6.2,4.6-9.2,6.6,6.3.7,13.5,1.6,21.4,2.7.2,0,.4,0,.6.1,10.8,3,20.5,9.1,29.1,18,4.1,4.2,10.6,12.5,19.3,24.6,1.3,1.7,2.6,3.6,3.7,5.5,2.1,3.3,4.2,6.7,6.3,10,1.2,1.6,2.4,3.4,3.4,5.2,4.7,6,9.2,9.1,13.3,9.1s1.1,0,1.6-.2l.8-.2c.7-.3,1.5-.6,2.4-.7.6-.1,1.1-.2,1.6-.2,3.1,0,5.5,1.9,6,4.8,1.7,9.2-3.2,18-14.5,26.1-8.6,6.2-17.8,10.3-27.4,12.2-6.4,1.3-12.3,1.9-17.6,1.9s-13.4-1.2-18.7-3.5c-9.3-4.1-17.4-12.5-24.1-24.9v-.2c-6.8-13.7-13.7-27.4-20.5-41-10.1-17.2-19.9-26.4-28.1-26.6h-.7c-1.6,0-3.4.3-5.5.8-1.1.3-2.1.5-3.1.8l17.6,72.1c.5,2,1.3,4.3,2.4,6.8,1.1,2.5,2.4,4.8,4,7,1.6,2.3,3.4,4.5,5.1,6.6,1.4,1.7,2.8,2.8,4.2,3.4,1.9.9,3.1,2.9,2.9,5s-1.7,3.9-3.8,4.4c-27.1,6.5-54.5,13.6-81.4,21-.4.1-.9.2-1.3.2l-.2.2ZM359.5,240.5c-18.6,0-34.9-3.7-48.4-11-21.1-11.2-34.5-30.6-39.5-57.6-4.5-23.9.6-44.7,15.2-61.9,14.4-16.9,35.7-27.7,63.4-31.9,5.9-.9,11.8-1.4,17.5-1.4,12.9,0,25.4,2.3,37,6.9,18.6,7.2,31,19,36.7,35.1,0,.3.2.5.3.8,0-.3,0-.7-.1-1-2-17.4,5.1-31.9,21-43,13.5-9.5,30.2-15.1,49.7-16.8,2.7-.2,5.8-.3,9.4-.3s9.4.2,15,.5c3,.2,6,.3,9.1.5,6.8.4,12.3.6,16.9.6s4.4,0,6.2-.2c.8,0,2.8-.3,7.2-1,3.5-.6,8.1-1.4,14.5-2.6h.9c2.3,0,4.4,1.6,4.9,4l1,4.7v.7c.6,10.5-3.3,20-11.4,28.2-7.9,8.2-17.7,12.8-29.2,13.6-2.1,0-4.2.2-6.1.2-10.7,0-18-2.4-22.4-7.2-.9-1-1.4-2.4-1.3-3.8.5-4.8.4-6.4.4-6.9,0-1.9-.5-7-14.3-7s-3.7,0-5.8.3c-5.3.5-9.7,1.9-13.1,4.2-4.5,2.9-4.8,5.6-4.6,7.7.2,1.6,2.6,7,26.9,10,14.1,1.8,26.4,3.7,36.6,5.5,9.6,1.7,16.7,3.6,21.1,5.5,21.9,8.8,33.7,24.4,34.8,46.4.9,16.5-5.1,30.5-17.8,41.4-12.1,10.6-27.1,16.7-44.3,18.1-1.7.1-3.6.2-5.5.2-6.7,0-14.8-.7-25-2.3-3.5-.5-7-.9-10.5-1.4-8.4-1.2-15.6-1.9-21.6-1.9s-4.7.1-6.7.3c-5.3.6-9.3,2.5-12.4,6-.9,1.1-2.3,1.7-3.8,1.7h0c-5.5,0-12.4-3.2-14.1-18.4-.5-4.2,0-8.3,1.7-12.2,1.5-3.7,3.7-7.1,6.5-10.1s6.1-5.5,9.9-7.4,7.9-3.1,12.3-3.6c1.3-.1,2.6-.2,4-.2,10.9,0,23.8,4.5,38.3,13.3,13.7,8.4,24.1,12.6,31,12.6s.7,0,1.1,0c4.3-.3,7.8-1.8,10.7-4.4,2.6-2.4,3.7-5.2,3.5-8.6-.5-8.3-9.8-13.9-27.6-16.7-19.6-3.2-34-5.2-42.7-6.4-13.9-1.9-15-2-15.9-2.3-16.9-5-28.4-13.8-34.3-26.3.5,2.2.8,4.4,1.1,6.5l.4,3.3c.2,1.5.2,3,.1,4.5-.2,2.4-2,4.3-4.4,4.6-32.2,3.9-64.7,8.5-96.7,13.7l1.4,8.9c2.3,14,5.7,24.1,10.3,30.1h0c4.9,6.6,11.7,9.9,20.9,9.9s4.4-.2,6.8-.5c8.7-1.3,15.1-4.3,19.7-9.4,4.4-4.9,6.1-10.6,5.2-17.6-.6-4.8-3-9.2-7.4-13.3-1.2-1.1-1.7-2.8-1.5-4.4.2-1.6,1.3-3,2.7-3.7,5-2.5,8.6-3.8,11.2-4.2,1.8-.2,3.5-.4,5.2-.4,6.3,0,11.9,1.7,16.4,5,5.8,4.3,9.3,10.4,10.2,18.4,1.7,14.3-5.2,26.9-20.7,37.4-12.3,8.3-26.3,13.7-41.6,15.9-9,1.3-17.7,2-25.6,2h0ZM341.9,110.2c-.7,2.7-1.4,8.4-.9,19.9,0,1.9.2,3.8.4,5.8.2,2,.5,4,.9,6.4l.2,1c10.8-1.7,21.7-3.4,32.5-4.9l-2.8-19.5c-2.8-19.4-11.3-19.4-14.6-19.4s-2,0-3,.2c-6.5,1-10.6,4.3-12.6,10.5h-.1ZM670.8,216.9c-14.5,0-27.2-3.6-37.8-10.7-12.8-8.4-19.7-20-20.4-34.4-.6-13.2,4.1-25,14.1-35.1h0c8.8-8.5,20.3-15,34.4-19.3,8.9-2.8,17.2-5.7,24.5-8.5,5.6-2.2,11.6-4.5,17.6-6.7,6.1-3.3,6.8-6.8,6.8-9.2,0-12.8-6.4-14.5-12.6-14.5h-.4c-5.6,0-7.7,1.4-8.4,2.2-.4.4-1,1.2-.9,3.1,0,0,0,.5.7,1.9l1.5,3.3c1,2.2,1.5,4.1,1.5,5.8,0,6.6-7.6,10.1-15.2,12.5-6.6,2.3-12.2,3.5-17,3.7h-1.3c-12.6,0-23.1-5.5-31.3-16.5-7.1-9.1-11-19.6-11.6-31.3,0-1.3,0-2.3.2-3.2.6-2.6,2.6-4.3,5.1-4.4h.2c.9,0,1.8.2,3.9.9,1.3.4,2.6.9,3.9,1.3,1.4.4,2.8.9,4.3,1.3,1.2.3,1.9.4,2.3.4l4.3-.2c8.5-.3,15.3-.6,21-1,6-.4,10.9-.8,15.1-1.3,1.1-.2,2.6-.5,4.3-.8s4.1-.8,7.1-1.5c5.7-1.2,9.8-1.8,12.7-1.8h3.6c26.2,0,45,4.1,56.1,12.1,12.5,9.4,18.7,26.8,18.3,51.7l-.9,62.9c0,5.6,2.2,14.2,6.8,25.6.6,1.6.4,3.3-.5,4.7s-2.5,2.2-4.1,2.2,0,0,0,0c-14.2-.3-28.6-.4-42.8-.4h-15.5c-2,0-3.9-1.2-4.6-3.1-.7-1.8-1.5-3.7-2.2-5.5-12.7,8.9-26.2,13.6-40.2,13.9h-2.6ZM709.1,127c-6,2.3-12,7-18,14.2-7.6,9.2-11.4,17.5-11.3,24.7,0,5.5,1.5,9.8,4.3,13.3,3,3.8,6.7,5.5,11.6,5.5h.3c1.2,0,3.8-.6,8.3-4.4h0c4.8-3.8,4.9-5.7,4.9-5.9l-.4-43.2v-4.1h.3ZM862.9,215.2c-22.3-1.2-45-2-67.4-2.6-2.2,0-4.1-1.5-4.7-3.6-.6-2.1.2-4.3,2-5.5,4.6-3.1,7-8.7,7.2-17.2l2.8-102.5c0-3.4-.6-6.6-2.1-9.7-1.9-3.9-3.8-7.7-5.7-11.3-.8-1.6-.7-3.5.2-5s2.5-2.4,4.2-2.4,0,0,0,0c21.1.5,42.4,1.3,63.5,2.3,2.8,0,4.9,2.5,4.7,5.2v2.8c10-5.7,20.4-8.6,30.7-8.6s2.4,0,3.5,0c14.9,1,26.9,7.5,35.8,19.5,8,10.8,11.5,23,10.4,36.1-.7,9-3.8,16-9.2,20.7-.9.8-2.1,1.2-3.3,1.2s-.3,0-.4,0c-18-1.4-35.3-2.6-52.9-3.6-1.8-.1-3.4-1.2-4.2-2.8-.8-1.6-.6-3.6.5-5.1,4.5-6.2,6.8-12.7,7.3-19.9.2-3.3-.4-6.3-1.9-9.3v-.2c-2.1-4.6-4.4-4.7-5.2-4.8h-1.1c-3.7,0-6.6,1.1-8.9,3.4-2.6,2.6-4,5.8-4.2,9.7l-2,41.5c-.7,9.2-1.2,17.3-1.5,24.3l-.8,17c-.4,8.2,1.9,15.4,6.9,22.2,1.2,1.6,1.3,3.6.4,5.3-.9,1.6-2.6,2.6-4.4,2.6s-.2,0-.3,0v.2ZM313.1,84.8c-1.3,0-2.5-.5-3.4-1.4l-3.8-3.6c-1-1-1.6-2.3-1.6-3.7s.6-2.7,1.7-3.7c14.3-12.7,33.1-29.4,39.6-36.3.2-.8.6-1.6,1.3-2.3,2.2-2.2,4.3-4.3,6.5-6.1,2.8-2.3,6.9-3.9,12.6-4.7.8-.1,1.6-.2,2.4-.2,4.1,0,8.1,1.5,11.9,4.5,4.5,3.5,7.1,7.6,7.7,12.1s-.1,12.8-11.8,17.9c-20.3,8.6-60.5,26.7-61,26.9-.7.3-1.4.4-2,.4v.2Z"/>
    <path class="st2" d="M368.3,28c3,0,5.9,1.2,8.8,3.4,3.5,2.7,5.4,5.7,5.9,8.8.8,5.5-2.2,9.7-8.9,12.7-20.5,8.7-61,26.9-61,26.9,0,0-2.5-2.4-3.8-3.6,27.2-24.1,41.9-37.4,43-40.6-.6.6-1.3,1.2-1.9,1.8,2.1-2.1,4.1-4,6.1-5.7s5.4-2.9,10-3.6c.5,0,1.1-.1,1.6-.1M235.2,51.6c9.9,0,17.6,2.7,23.1,8-1.2,1.4-3.7,2.8-7.7,4-4,1.3-7.3,3.4-10.1,6.3-2.2,2.2-4.3,5.1-6.4,8.7-2.1,3.5-4.1,7.8-6.3,12.6-2.3,6.1-6.9,14.7-13.6,25.6-3,4.9-9.1,10.7-18.2,17.6-7.9,6-15.3,10.8-22.3,14.4,8.5.3,20.8,1.5,36.7,3.9,9.9,2.8,18.9,8.3,26.8,16.7,3.8,3.9,10.1,11.9,18.9,24.2,1.2,1.6,2.4,3.3,3.4,5.1,2.1,3.4,4.3,6.9,6.4,10.3,1.2,1.6,2.3,3.3,3.4,5.1,5.8,7.5,11.6,11.3,17.4,11.3s1.7,0,2.5-.2c.5-.1,1.1-.2,1.6-.3.4-.3.9-.5,1.6-.6h.7c.6,0,1,.2,1.1.7,1.3,7.2-2.9,14.3-12.5,21.1-8,5.8-16.5,9.6-25.5,11.4-6.1,1.2-11.6,1.8-16.6,1.8s-12-1-16.7-3.1c-8.3-3.7-15.5-11.2-21.7-22.7-6.8-13.7-13.7-27.5-20.6-41.2-11.3-19.2-22.2-29-32.4-29.2h-.8c-2,0-4.2.3-6.7.9-1.6.4-3,.8-4.3,1.2s-2.5.9-3.6,1.3c6.2,25.5,12.5,50.9,18.7,76.4.6,2.3,1.5,4.9,2.7,7.6,1.2,2.8,2.7,5.4,4.5,7.8,1.7,2.4,3.5,4.8,5.4,7s3.8,3.8,5.9,4.7c-27.3,6.5-54.5,13.6-81.6,21.1,1.4-3.1,2.4-8.3,2.9-15.6.4-6.9,0-12.5-1.1-16.7-11.8-43.5-23.7-87-35.5-130.5-2.6-9.4-8.4-18.5-17.8-27.3,29.2-8,58.5-15.4,87.9-22.4-6.4,10.9-8.3,21.4-5.8,31.5,3.3,13.6,6.7,27.2,10,40.8.6-.1,1.1-.3,1.7-.4,6.7-1.6,12.8-5,18.2-10.2,1.8-1.4,4.7-5.2,8.8-11.2,2.4-3.2,4.2-5.7,5.4-7.5s2-3.1,2.4-3.7c1.1-2.7,2-5.2,2.9-7.7,1.7-5.1,3.5-10.1,5.2-15.2,1.1-2.7,2.1-5.2,3-7.7,5.5-12.2,12.5-20.8,20.9-25.8,6-3.5,13.9-6.2,23.7-8.2,5-1,9.7-1.5,13.9-1.5M703.1,57.8c25.4,0,43.2,3.9,53.2,11.2,11.2,8.4,16.6,24.3,16.2,47.6-.3,21-.6,41.9-.9,62.9,0,6.4,2.3,15.5,7.1,27.5-14.3-.3-28.6-.4-42.9-.4h-15.5c-1.5-3.9-3.1-7.7-4.7-11.6-13.5,10.8-27.6,16.4-42.6,16.8h-2.3c-13.6,0-25.2-3.2-35-9.8-11.4-7.5-17.6-17.6-18.2-30.5-.6-11.7,3.6-22.2,12.6-31.3,8.2-7.9,19-14,32.4-18.2,8.9-2.8,17.2-5.7,24.9-8.6,5.8-2.3,11.8-4.6,17.9-6.8,6.5-3.5,9.8-8,9.7-13.8,0-12.9-6-19.5-17.6-19.5h-.5c-9.7,0-14.4,3.6-14.3,10.4,0,1,.4,2.3,1.1,3.9.5,1.1,1,2.2,1.4,3.2.7,1.6,1.1,2.9,1.1,3.9,0,2.6-3.9,5.1-11.8,7.7-6.1,2.1-11.3,3.3-15.6,3.4h-1.2c-11,0-20.1-4.8-27.4-14.5-6.5-8.3-10.1-17.8-10.5-28.5,0-1.6,0-2.4.6-2.4h0c.2,0,1,.2,2.3.6,1.3.4,2.6.9,4,1.3,1.4.4,2.9.9,4.4,1.3,1.4.4,2.6.6,3.7.6s.2,0,.3,0c1.4,0,2.8,0,4.1-.2,8.1-.3,15.1-.6,21.1-1s11.2-.8,15.5-1.3c1.1-.2,2.6-.5,4.5-.8,1.8-.3,4.3-.8,7.2-1.5,5.3-1.1,9.2-1.6,11.8-1.7h3.5M714.3,120.6c-9.2,1.1-18.3,6.9-27.1,17.4-8.5,10.3-12.6,19.7-12.4,28,.2,6.6,2,12,5.4,16.3,4,5,9.2,7.4,15.6,7.4s.3,0,.4,0c3.3,0,7.1-1.9,11.4-5.5,4.6-3.6,6.9-6.9,6.8-9.9,0-14.4-.3-28.8-.4-43.2,0-3,0-6.5.2-10.4M799.5,60.4c21.1.5,42.2,1.3,63.3,2.3-.2,4.2-.4,8.3-.6,12.5,12-8.7,24.2-13.1,36.3-13.1s2.1,0,3.2,0c13.4.9,24.1,6.7,32.1,17.5,7.3,9.9,10.4,20.9,9.4,32.7-.6,7.7-3.2,13.5-7.5,17.3-17.5-1.4-35.1-2.6-53-3.6,5.1-7.1,7.7-14.6,8.2-22.5.3-4.2-.5-8.1-2.4-11.8-2.2-4.9-5.4-7.5-9.5-7.7h-1.4c-5.1,0-9.2,1.6-12.4,4.8-3.5,3.5-5.4,7.8-5.6,13-.7,13.8-1.3,27.6-2,41.4-.7,9.3-1.2,17.4-1.5,24.4-.3,6.7-.6,12.4-.8,17-.5,9.3,2.2,17.8,7.9,25.5-22.5-1.2-45-2-67.5-2.6,6-4,9.1-11.1,9.4-21.2.9-34.2,1.9-68.3,2.8-102.5,0-4.2-.7-8.2-2.6-12-1.9-3.8-3.8-7.6-5.8-11.5M591.4,61.2c.3,1.6.6,3.1,1,4.7.5,9.1-2.9,17.3-10,24.5-7.1,7.4-15.7,11.4-26,12.1-2,0-3.9.2-5.7.2-9.1,0-15.3-1.8-18.7-5.6.4-3.8.5-6.4.4-7.8-.6-7.7-7-11.6-19.3-11.6s-4,0-6.2.3c-6.2.5-11.4,2.2-15.5,5-5,3.3-7.2,7.4-6.8,12.3.7,7.3,11.2,12,31.2,14.5,14.8,1.9,26.8,3.8,36.3,5.5,9.4,1.7,16.1,3.5,20.1,5.2,20.2,8.1,30.7,22.2,31.7,42,.8,15.1-4.7,27.5-16.1,37.3-11.5,10-25.2,15.6-41.5,16.9-1.6.1-3.3.2-5.1.2-6.5,0-14.5-.8-24.2-2.2-3.5-.5-7.1-1-10.6-1.4-8.7-1.3-16.1-1.9-22.2-1.9s-5.1.1-7.2.3c-6.5.7-11.7,3.3-15.6,7.7-5.1,0-8.1-4.7-9.2-13.9-.4-3.4,0-6.6,1.4-9.8,1.3-3.1,3.1-6,5.5-8.6s5.2-4.7,8.5-6.3c3.3-1.7,6.8-2.7,10.5-3.1,1.1-.1,2.3-.2,3.4-.2,9.9,0,21.9,4.2,35.7,12.6,14.5,8.8,25.6,13.3,33.6,13.3s1,0,1.5,0c5.4-.4,10-2.3,13.7-5.8,3.7-3.4,5.4-7.6,5.1-12.6-.7-10.9-11.3-18.1-31.8-21.3-19-3.1-33.3-5.1-42.8-6.4-9.5-1.3-14.6-2-15-2.1-21.1-6.2-32.8-18.5-35-37.3-1.8-15.4,4.5-28.2,18.9-38.4,12.7-8.9,28.5-14.3,47.2-15.9,2.5-.2,5.5-.3,9-.3s9.1.2,14.7.5c3,.2,6.1.3,9.1.5,6.7.4,12.5.6,17.2.6s4.6,0,6.5-.2c1.4,0,4-.4,7.7-1.1,3.8-.6,8.6-1.5,14.6-2.6M953.2,68.7c21.3,1.8,42.6,3.9,63.8,6.3,0,1.2-.3,2.4-.4,3.6-.5,3.6-1,7.3-1.6,10.9-3.3,30.2-6.7,60.4-10,90.6-.6,5.7.3,10.9,2.9,15.6,2.8,5.1,7.3,8,13.6,8.8.9.1,1.7.2,2.6.2,5.4,0,10.5-2,15.4-6.1,5.9-4.7,9.3-9.8,10-15.6,3.2-25,6.4-50,9.7-75.1,1.5-12,0-21.5-4.4-28.5,21.8,2.7,43.6,5.8,65.3,9.1-6.2,40.8-12.4,81.5-18.6,122.3-1.5,9.6.3,17.8,5.2,24.6-21.1-3.3-42.3-6.3-63.5-9,.2-1.6.5-3.6.8-6.2.3-2.6.7-5.6,1.2-9.2-5.2,2.5-9.8,4.7-13.9,6.4s-7.7,3-10.9,3.8c-5.1,1.2-10.6,1.7-16.4,1.7s-7-.2-10.7-.6c-6.1-.7-11.8-2.5-17.2-5.7-18-10.4-26.3-25.3-24.6-45.1,2.2-24.6,4.4-49.3,6.5-73.9,1.1-12.7-.6-22.3-5.1-28.9M367.7,81.8c12.4,0,24.1,2.2,35.2,6.6,17.4,6.7,28.6,17.5,33.8,32.1,1.4,3.8,2.5,7.4,3.3,10.7.8,3.3,1.5,6.5,1.8,9.7.1,1,.2,2.1.4,3.3.1,1.2.2,2.4,0,3.6-34,4.1-68,9-101.8,14.5.7,4.6,1.5,9.2,2.2,13.8,2.4,14.9,6.2,25.7,11.2,32.3,5.8,8,14.1,11.9,24.9,11.9s4.9-.2,7.5-.6c9.8-1.4,17.3-5.1,22.7-11,5.4-5.9,7.6-13.1,6.5-21.6-.8-5.9-3.7-11.3-8.9-16.3,4.4-2.2,7.7-3.4,9.6-3.7,1.6-.2,3.1-.3,4.6-.3,5.3,0,9.8,1.3,13.4,4,4.7,3.4,7.4,8.4,8.2,14.9,1.5,12.4-4.8,23.3-18.5,32.7-11.8,7.9-24.9,13-39.6,15.1-8.8,1.3-17.1,2-24.9,2-17.8,0-33.1-3.4-46-10.4-19.7-10.4-32.2-28.4-37-54.1-4.2-22.2.4-41.5,14.1-57.7,13.5-15.9,33.8-26.1,60.4-30.2,5.7-.9,11.3-1.3,16.7-1.3M338.7,148.9c14-2.2,27.9-4.4,41.9-6.4-1.2-8.2-2.3-16.3-3.5-24.5-2.2-15.7-8.8-23.7-19.5-23.7s-2.5,0-3.8.3c-8.4,1.3-14,6-16.7,14-1.2,4.4-1.5,11.6-1.1,21.6,0,2,.2,4,.5,6.1.2,2.1.5,4.3.9,6.6,0,.6.2,1.4.4,2.4.2,1,.5,2.1.9,3.5M1139.3,91.4c20.8,3.4,41.6,7.1,62.3,11-.8,4.5-1.7,9-2.5,13.5,3.9-4.7,11-7.8,21.1-9.1,3.1-.4,6.2-.6,9.4-.6,5.1,0,10.3.5,15.6,1.6,12.5,2.5,22,5.7,28.3,9.3,5.9,3.5,12.7,10.3,20.4,20.3,2.6-1,5.6-2.1,8.9-3.2,3.3-1.1,7.2-2.2,11.5-3.5,5-1,10.1-1.6,15.3-1.6s14.2.9,21.7,2.8c23.5,5.8,36.5,19.5,38.8,40.4.4,5.5.2,9.8-.6,13.1-3.8,14-7.5,28-11.3,42-2.7,9.2-5,17.2-6.8,24.1-1.9,6.9-3.4,12.8-4.7,17.6-1.9,7.1-1,14.4,2.6,22-22.6-6.1-45.2-11.9-67.9-17.4,6.4-5,10.8-12.3,13.1-22,7.1-28.7,14.2-57.5,21.4-86.2.9-3.7,0-7.7-2.9-12.1-2.9-4.4-6.4-7.1-10.7-8.1-1.6-.4-3.1-.6-4.7-.6-4.3,0-8.5,1.4-12.8,4.1-5.8,3.6-9.2,8-10.4,13.2-6.1,27.2-12.1,54.5-18.2,81.7-2.3,10.3-2,18.3.9,24.1-22.2-5.1-44.5-9.9-66.8-14.4,6.4-6.4,10.4-13.3,11.9-20.7,5.5-27.4,10.9-54.8,16.4-82.1,1-5.1.5-10.4-1.6-16.1-2.5-6.2-6.7-9.9-12.6-11-1.4-.3-2.8-.4-4.1-.4s-3.6.2-5.4.7c-3.2.8-6.2,2.1-9,3.8s-5.1,3.7-7.1,6.1-3.2,4.9-3.7,7.7c-5,27.2-10.1,54.3-15.1,81.5-.5,2.5-.3,6.9.6,13.1,1.2,6.7,2.3,10.8,3.3,12.5-22.8-4.3-45.6-8.3-68.4-11.9,6.3-4.6,10.2-11.9,11.9-21.9,5.3-32.7,10.7-65.5,16-98.2,1.5-9,0-17.4-4-25.1M368.3,18c-1,0-2,0-3.1.2-6.6,1-11.5,2.9-15.1,5.8-2.3,1.9-4.6,4.1-6.8,6.4-.9.9-1.6,2-2.1,3.1-6.8,7.1-25.5,23.7-38.5,35.2-2.1,1.9-3.3,4.5-3.4,7.3,0,2.8,1.1,5.5,3.1,7.4,1.3,1.2,3.8,3.6,3.8,3.6.1,0,.2.2.3.3-9.1,5.2-17,11.7-23.5,19.4-15.6,18.4-21.1,40.6-16.3,66,3.2,17,9.5,31.1,18.8,42.3-2.2-.7-5-3-7.9-6.7-1.1-1.8-2.2-3.6-3.4-5.2-2-3.3-4.1-6.5-6.1-9.8-1.2-2.1-2.5-4.1-3.9-5.9-8.8-12.2-15.4-20.7-19.8-25.1-9.1-9.6-19.7-16.1-31.3-19.4-.4-.1-.8-.2-1.3-.3-3-.4-5.9-.8-8.7-1.2,9.8-7.4,16-13.6,19.6-19.5,7.1-11.6,11.9-20.5,14.4-27,1.9-4.4,3.8-8.2,5.7-11.4,1.6-2.8,3.3-5.1,4.9-6.7,0,0,.1,0,.2-.2,1.6-1.7,3.5-2.9,5.8-3.6,6.1-1.9,9.9-4.1,12.4-7.2,3.3-4,3-9.9-.8-13.5-7.4-7.2-17.5-10.9-30-10.9s-10.2.6-15.8,1.7c-10.8,2.1-19.8,5.3-26.8,9.3h-.1c-10.2,6.1-18.5,16.3-24.9,30.3,0,.2-.2.4-.3.6-.8,2.2-1.8,4.6-2.9,7.4,0,.2-.1.3-.2.5-1.7,5-3.5,10.1-5.2,15.2-.7,2-1.6,4.3-2.6,6.8-.2.3-.6,1-1.5,2.3-1.2,1.7-2.9,4-5.2,7.3,0,0-.2.2-.2.3-4.8,7.1-6.5,8.8-6.8,9.1s-.4.3-.6.5c-1.9,1.8-3.9,3.3-6,4.6l-7.3-29.9c-1.8-7.5-.3-15.4,4.8-24,2-3.5,1.8-7.8-.6-11-1.9-2.6-4.9-4.1-8-4.1s-1.5,0-2.3.3c-29.4,6.9-59.1,14.5-88.3,22.4-3.5,1-6.2,3.7-7.1,7.2s.2,7.2,2.9,9.7c7.9,7.4,12.9,15,15,22.6l35.5,130.5c.6,2.1,1.2,6.2.8,13.4-.6,8.5-1.7,11.4-2,12.1-1.6,3.5-1.1,7.7,1.4,10.7,1.9,2.3,4.7,3.5,7.6,3.5s1.8-.1,2.7-.4c26.8-7.4,54.2-14.5,81.2-21,4.1-1,7.2-4.5,7.6-8.7.4-4.2-1.9-8.3-5.8-10.1-.4-.2-1.2-.7-2.5-2.1-1.7-2-3.3-4.1-4.8-6.2-1.4-1.9-2.5-4-3.5-6.1-1-2.2-1.7-4.2-2.1-5.9l-14.1-57.5-2.4-9.7c1.2-.2,2.1-.3,2.6-.3s.2,0,.4,0h.2c2.9,0,11.1,2.5,23.8,24,6.9,13.5,13.7,27.3,20.4,40.8,0,.1.1.2.2.3,7.2,13.4,16.1,22.5,26.5,27.1,5.9,2.6,12.9,4,20.7,4s11.9-.7,18.6-2c10.3-2.1,20.2-6.5,29.3-13.1,9.7-7,15.3-14.6,16.6-22.7,1.5.9,3,1.8,4.6,2.6,14.2,7.7,31.3,11.6,50.7,11.6s17.1-.7,26.4-2.1c16.1-2.4,30.8-8,43.7-16.7h0c5.7-3.9,10.4-8.2,14.1-12.7.8,2.9,1.9,5.4,3.3,7.5,3.4,5.1,8.5,8,14.4,8h0c2.9,0,5.6-1.2,7.5-3.4,2.2-2.5,5.1-3.9,9.2-4.4,1.8-.2,3.9-.3,6.2-.3,5.7,0,12.7.6,20.8,1.8h.2c3.5.5,7,.9,10.5,1.4,10.3,1.6,18.7,2.3,25.6,2.3s4.1,0,5.9-.2c18.3-1.4,34.2-7.9,47.2-19.3,7.3-6.3,12.6-13.4,15.8-21.5,3.4,9.8,10.1,18,20,24.4,11.4,7.6,25,11.5,40.5,11.5s1.7,0,2.5,0c13.1-.3,25.7-4.2,37.7-11.4,1.5,3.7,5.2,6.2,9.2,6.2s0,0,0,0h15.5c14.2,0,28.6.1,42.7.4h.2c3.3,0,6.4-1.6,8.2-4.3,1.7,2.9,4.9,4.9,8.4,4.9,22.3.5,45,1.4,67.3,2.6h.5c3.7,0,7.1-2,8.8-5.3,1.8-3.4,1.5-7.6-.8-10.7-4.3-5.8-6.3-12-6-19v-2.6c0,0,.8-14.4.8-14.4.3-6.9.8-15.1,1.5-24.1v-.2l1-20.7,1-20.7c0-2.7,1-4.7,2.7-6.4.9-.9,2.3-1.9,5.4-1.9h.7c.2.2.6.8,1.1,1.9,0,0,0,.2.2.3,1,2.1,1.5,4.3,1.3,6.7-.4,6.2-2.5,11.9-6.4,17.3-2.1,3-2.5,6.9-.9,10.2,1.6,3.3,4.8,5.5,8.5,5.7,17.6,1,34.9,2.2,52.8,3.6h.8c2.4,0,4.8-.9,6.6-2.5.9-.8,1.8-1.7,2.7-2.7l-3.2,35.9c-1,11.8,1,22.5,6.1,31.8,5,9.1,12.9,16.8,23.5,22.9,6.5,3.8,13.7,6.2,21.1,7,4,.4,8,.7,11.8.7,6.6,0,12.8-.7,18.6-2h.3c3.1-.8,6.5-2,10.3-3.5.2,1.8.9,3.6,2,5.1,1.6,2.1,4,3.5,6.6,3.8,21,2.7,42.3,5.7,63.3,9,.5,0,1,.1,1.5.1,1,0,2-.1,2.9-.4,1.2.8,2.6,1.4,4.1,1.6,22.7,3.6,45.6,7.6,68.2,11.9.6.1,1.2.2,1.9.2,3.3,0,6.4-1.6,8.3-4.4,2.2-3.2,2.3-7.3.3-10.7-.2-.5-.9-2.6-2.1-9-1-7.4-.7-9.5-.6-9.8l15.1-81.5c.2-1.1.7-2.1,1.6-3.1,1.3-1.5,2.8-2.8,4.6-4,1.9-1.2,3.9-2,6.2-2.6,1-.3,2-.4,3-.4s1.5,0,2.2.2c1.8.4,3.7,1.2,5.2,4.8,1.4,3.9,1.8,7.3,1.2,10.5-5.5,27.4-10.9,54.8-16.4,82.2-1.1,5.4-4.1,10.5-9.2,15.6-2.6,2.6-3.6,6.4-2.5,10,1.1,3.5,4,6.2,7.6,6.9,22.1,4.4,44.5,9.2,66.5,14.3.7.2,1.5.3,2.2.3,3,0,6-1.4,7.9-3.9,2.4-3.1,2.8-7.2,1-10.7-1.3-2.5-2.3-7.5,0-17.3,6.1-27.3,12.1-54.5,18.2-81.8.2-.9.8-3.7,5.9-6.9,0,0,0,0,.2-.1,2.6-1.7,5-2.5,7.4-2.5s1.6,0,2.4.3c1.1.3,2.7.9,4.6,3.8,1.4,2.1,1.7,3.6,1.6,4.2-7.1,28.7-14.2,57.4-21.4,86.2-1.8,7.5-5,12.9-9.6,16.5-3,2.4-4.4,6.2-3.6,10,.8,3.7,3.7,6.7,7.4,7.6,22.5,5.4,45.3,11.2,67.6,17.3.9.2,1.7.3,2.6.3,2.9,0,5.8-1.3,7.7-3.6,2.5-3,3-7.2,1.3-10.7-2.6-5.4-3.3-10.4-2-15.1l3.9-14.5.8-3.1c1.9-6.9,4.1-15,6.7-23.9v-.2l5-18.5,6.3-23.5c1.2-4.4,1.5-9.8,1-16.5v-.3c-1.9-17.6-11.5-40.4-46.3-49.1-8.2-2-16.3-3.1-24.1-3.1s-11.8.6-17.4,1.8c-.2,0-.5,0-.7.2-4.4,1.3-8.4,2.5-11.8,3.6-.8.3-1.7.5-2.5.8-6.7-8-12.8-13.6-18.6-17.1,0,0,0,0-.2,0-7.3-4.2-17.9-7.6-31.3-10.4-5.9-1.2-11.9-1.8-17.6-1.8s-7.2.2-10.7.7c-2.9.4-5.6.9-8.2,1.5-1.3-2.9-3.9-5.2-7.3-5.8-20.7-3.9-41.8-7.7-62.5-11.1-.5,0-1.1,0-1.6,0-3.2,0-6.2,1.5-8.1,4.2-.4.5-.7,1.1-1,1.7-.5-4.4-3.9-8-8.4-8.7-21.7-3.3-43.8-6.4-65.6-9.1h-1.2c-3.4,0-6.6,1.7-8.5,4.7-2.1,3.3-2,7.5,0,10.7,3.1,4.9,4.1,12.2,2.9,21.8l-1,7.7-8.7,67.4c-.4,3-2.4,6-6.3,9,0,0,0,0-.2.1-3.1,2.5-6.1,3.8-9.1,3.8s-.9,0-1.4,0c-3.6-.4-5-1.7-6-3.6h0c-1.6-2.9-2.2-6-1.8-9.7l8.5-76.8,1.5-13.7,1.5-10.8v-1.1l.4-2.8c.6-5.5-3.4-10.4-8.8-11-21.2-2.3-42.8-4.5-64.1-6.3h-.9c-3.5,0-6.8,1.9-8.6,5-1.9,3.3-1.8,7.5.4,10.7,1.7,2.5,2.9,6,3.4,10.4-1.7-3.8-3.9-7.4-6.5-10.9-9.8-13.3-23-20.5-39.5-21.6-1.3,0-2.6,0-3.9,0-9,0-18,2-26.8,6-.4-.8-.9-1.5-1.5-2.1-1.8-2-4.3-3.1-6.9-3.3-21.1-1-42.5-1.8-63.6-2.3h-.2c-3.4,0-6.7,1.8-8.5,4.7-1.9,3-2,6.8-.4,9.9,1.9,3.6,3.8,7.4,5.6,11.2,1.1,2.4,1.7,4.8,1.6,7.4l-1.4,51.2-1.4,51.2c-.3,10-3.8,12.4-5,13.2-1,.7-1.9,1.5-2.6,2.5-4.9-12.5-5.9-19-5.8-22.2l.7-50.2.2-12.7c.4-26.6-6.4-45.3-20.2-55.7h0c-12.1-8.9-31.5-13.2-59.1-13.2s-2.4,0-3.7,0c-3.2,0-7.7.7-13.6,1.9h0c-3,.6-5.2,1.1-6.9,1.4-1.7.3-3.1.6-4.2.8-4.1.5-8.9.9-14.6,1.2-5.6.3-12.4.7-20.8,1-1.4,0-2.7,0-4.1.2,0,0-.3,0-.9-.2-1.4-.4-2.7-.8-4.2-1.2-1.3-.4-2.6-.8-3.8-1.2-2.4-.8-3.8-1.2-5.5-1.2s-.3,0-.4,0h0c-4.7.2-8.6,3.5-9.8,8.3-.3,1.4-.4,2.8-.4,4.6.6,12.7,4.8,24.2,12.6,34.1,7.8,10.4,17.5,16.4,28.9,18-11.2,4.4-20.7,10.4-28.3,17.7,0,0,0,.1-.2.2-4.8,4.9-8.5,10.1-11.1,15.7-4.6-17.2-16.8-30.1-35.8-37.7-1.4-.6-3.1-1.2-5-1.8,6.8-2.5,13-6.6,18.3-12.2,9.2-9.3,13.5-20,12.8-32,0-.5,0-1-.2-1.4l-1-4.7c-1-4.7-5.1-8-9.8-8s-1.2,0-1.9.2c-6.3,1.2-10.9,2-14.4,2.6-4.7.8-6.3.9-6.7,1-1.7,0-3.6.2-5.8.2-4.4,0-9.9-.2-16.5-.6-3.1-.2-6.1-.4-9.2-.5-5.7-.3-10.8-.5-15.2-.5s-7,0-9.8.4c-20.4,1.8-37.9,7.7-52.1,17.7-11.7,8.2-19.1,18.3-22.1,29.9-7.3-9.6-17.7-17.1-31.1-22.3-12.2-4.8-25.2-7.3-38.8-7.3s-9.1.3-13.8.8c8.8-3.9,17.5-7.7,24.1-10.5h.1c15.3-6.7,15.4-18.5,14.7-23.2-.8-5.8-4-10.9-9.6-15.3-4.7-3.7-9.8-5.6-15-5.6h.5ZM693.2,83.8c.8-.2,2.1-.4,4.1-.4h.3c4,0,7.5,0,7.6,9.5,0,.8,0,2.4-3.9,4.6-1.9.7-3.8,1.4-5.7,2.2.6-1.5,1-3.2.9-5.1,0-2.4-.7-4.9-2-7.7-.4-1-.9-2-1.3-3h0ZM494.7,93.8c0-.5.5-1.3,2.3-2.4h.1c2.7-1.8,6.3-2.9,10.8-3.3,1.9-.2,3.7-.3,5.3-.3,7.4,0,9.1,1.7,9.2,1.7h0s0,.2,0,.6c0,0,0,1.4-.4,6-.2,1.5,0,3.1.6,4.5-1.8-.2-3.6-.5-5.4-.7h0c-16.7-2-21.4-5.1-22.5-6.1h0ZM1112.8,225.5c-1.6-3.8-1.9-8.2-1.2-13.2l9.3-61.1,8.7-57.4c.2.8.5,1.7.9,2.5,3.1,5.7,4.1,11.9,2.9,18.7l-3.9,24.3-12,74c-.8,5.2-2.4,9.3-4.7,12.3h0ZM346.7,111.6c1.5-4.3,4-6.3,8.6-7,.8,0,1.6-.2,2.3-.2,2.2,0,7.5,0,9.6,15.1l1.5,10.3.6,4.3c-7.5,1.1-15.1,2.3-22.6,3.4,0-.7-.2-1.4-.2-2.1-.2-1.9-.3-3.7-.4-5.5-.5-11.2.2-16.2.7-18.3h-.1ZM688.1,176c-2-2.6-3.1-5.9-3.2-10.3,0-5.8,3.4-13.2,10.1-21.4,3.1-3.7,6.1-6.6,9.1-8.9l.2,17.3.2,20.7c-.4.5-1.2,1.5-3,2.9,0,0,0,0-.2.1-3.6,3-5.2,3.2-5.3,3.2h-.2c-3.3,0-5.6-1.1-7.7-3.7h0ZM433,158.9c3.5-.4,7-.9,10.5-1.3,4-.5,7.3-3.4,8.4-7.2,6.8,6.3,15.7,11.1,26.6,14.3,1.2.4,2,.5,16.7,2.5,8.7,1.2,23.1,3.2,42.5,6.4h0c6.9,1.1,22.9,4.4,23.4,12.1,0,1.9-.4,3.2-1.9,4.6-2,1.9-4.5,2.9-7.7,3.1h-.7c-4.1,0-12.3-2.1-28.4-11.9-15.3-9.3-29-14-40.9-14s-3,0-4.5.2c-4.9.5-9.7,1.9-14,4.1-4.3,2.2-8.1,5-11.3,8.5h0c-1.7-7.3-5.7-13.4-11.5-17.7-2.2-1.6-4.6-2.9-7.2-3.9h0v.2ZM352,170.5c16-2.5,32-5,48.1-7.2-1.8,1.5-2.9,3.7-3.3,6-.5,3.2.6,6.5,3,8.7,3.5,3.3,5.4,6.7,5.9,10.3.7,5.5-.5,9.8-3.9,13.6-3.8,4.2-9.3,6.8-16.8,7.8-2.1.3-4.2.5-6.1.5-7.6,0-12.9-2.5-16.8-7.8,0,0,0-.1-.1-.2-2.8-3.6-6.7-11.4-9.3-27.8l-.6-4h-.1Z"/>
  </g>
  <path class="st3" d="M1369.4,296.2c-.4,0-.9,0-1.3-.2-22.4-6.1-45.2-11.9-67.8-17.3-1.9-.4-3.3-1.9-3.7-3.8s.3-3.8,1.8-5c5.5-4.3,9.3-10.8,11.4-19.2,7.1-28.8,14.3-57.5,21.4-86.2.5-2.2-.2-5-2.3-8.1-2.1-3.3-4.7-5.2-7.7-5.9-1.2-.3-2.4-.4-3.6-.4-3.3,0-6.7,1.1-10.1,3.3h0c-4.6,2.8-7.3,6.1-8.2,10.1-6.1,27.2-12.1,54.5-18.2,81.7-2.1,9.1-1.9,16,.5,20.7.9,1.7.7,3.8-.5,5.3-1,1.2-2.4,1.9-3.9,1.9s-.7,0-1.1-.1c-22-5.1-44.5-9.9-66.6-14.3-1.8-.4-3.3-1.7-3.8-3.5-.5-1.8,0-3.7,1.2-5,5.7-5.7,9.3-11.8,10.5-18.2,5.5-27.4,10.9-54.7,16.4-82.1.8-4.1.4-8.6-1.4-13.3-1.9-4.6-4.7-7.1-8.9-7.9-1.1-.2-2.1-.3-3.2-.3s-2.8.2-4.2.5c-2.7.7-5.2,1.7-7.6,3.2-2.3,1.4-4.3,3.1-5.8,5-1.4,1.7-2.3,3.5-2.6,5.4l-15.1,81.5c-.2,1.1-.4,4.1.6,11.4,1.5,8.4,2.5,10.3,2.6,10.5,1.1,1.7,1.1,3.8,0,5.5-.9,1.4-2.5,2.2-4.1,2.2h-.9c-22.6-4.3-45.6-8.3-68.3-11.9-1.8-.3-3.3-1.5-3.9-3.2-.9,1.2-2.4,1.9-3.9,1.9s-.5,0-.8,0c-21-3.3-42.3-6.3-63.4-9-2.7-.4-4.7-2.9-4.3-5.6l.8-6.3c-2.1.9-4,1.8-5.8,2.6-4.3,1.8-8.1,3.1-11.5,4h-.2c-5.4,1.2-11.3,1.8-17.5,1.8s-7.4-.2-11.2-.6c-6.7-.7-13.2-2.9-19.1-6.3-19.8-11.4-29-28.2-27.1-49.9l6.5-73.9c1-11.4-.4-20-4.2-25.6-1.1-1.6-1.2-3.7-.2-5.4.9-1.6,2.6-2.5,4.3-2.5s.3,0,.4,0c21.3,1.8,42.8,3.9,64,6.3,2.7.3,4.7,2.8,4.4,5.5l-.4,3.7-1.5,10.8-10,90.6c-.5,4.7.2,8.9,2.3,12.7,2,3.7,5.1,5.7,9.8,6.2.7,0,1.3.1,2,.1,4.2,0,8.2-1.6,12.2-4.9h0c4.9-3.9,7.6-7.9,8.1-12.3l9.7-75.1c1.4-10.8.2-19.2-3.6-25.2-1.1-1.6-1.1-3.7,0-5.4.9-1.5,2.5-2.3,4.2-2.3s.4,0,.6,0c21.7,2.7,43.8,5.8,65.5,9.1,1.3.2,2.5.9,3.3,2s1.1,2.4.9,3.7l-18.6,122.3c-1.3,8.3.2,15.2,4.3,20.9.3.4.5.7.6,1.1.3-.3.6-.6.9-.9,5.2-3.9,8.5-10,9.9-18.7l16-98.2c1.3-8,.2-15.2-3.5-21.9-.9-1.7-.8-3.7.3-5.3.9-1.3,2.5-2.1,4.1-2.1s.5,0,.8,0c20.8,3.4,41.7,7.1,62.4,11,2.7.5,4.5,3.1,4,5.8l-.3,1.8c3.8-1.5,8.3-2.6,13.4-3.3,3.2-.4,6.6-.7,10-.7,5.4,0,11,.6,16.6,1.7,12.9,2.6,22.9,5.9,29.8,9.8h0c5.9,3.5,12.4,9.8,19.5,18.7,1.8-.6,3.7-1.3,5.7-1.9,3.4-1.1,7.3-2.3,11.7-3.5h.3c5.3-1.1,10.8-1.7,16.3-1.7s15.1,1,22.9,2.9c25.3,6.3,40.1,21.7,42.5,44.7h0c.5,6.2.2,11-.8,14.9l-11.3,42.1c-2.6,8.9-4.9,17-6.8,24l-4.7,17.6c-1.6,5.9-.8,12,2.3,18.5.8,1.8.6,3.9-.7,5.4-1,1.2-2.4,1.8-3.8,1.8l.3.2ZM88.6,296c-1.4,0-2.9-.6-3.8-1.8-1.3-1.5-1.5-3.6-.7-5.3.8-1.7,1.9-5.5,2.4-13.9.4-6.3,0-11.4-.9-15l-35.5-130.5c-2.3-8.5-7.8-16.9-16.4-24.9-1.3-1.2-1.9-3.1-1.4-4.9.4-1.8,1.8-3.1,3.5-3.6,29.1-7.9,58.7-15.5,88.1-22.4.4,0,.8,0,1.1,0,1.6,0,3.1.7,4,2,1.2,1.6,1.3,3.8.3,5.5-5.7,9.8-7.5,18.9-5.3,27.7l8.8,35.8c4.6-1.6,8.9-4.3,12.8-8,.1,0,.2-.2.3-.3.6-.5,2.6-2.5,7.8-10.1,0,0,0,0,.1-.2,2.4-3.2,4.1-5.7,5.3-7.4,1.3-1.9,1.8-2.7,1.9-2.9,1.1-2.8,2-5.2,2.8-7.3,1.7-5,3.4-10.1,5.2-15.1v-.2c1.1-2.8,2.1-5.3,2.9-7.6,0,0,0-.2.1-.3,5.9-13.1,13.6-22.5,22.9-28.1,6.6-3.8,15.1-6.8,25.3-8.8,5.3-1.1,10.3-1.6,14.9-1.6,11.1,0,20.1,3.2,26.6,9.4,1.9,1.8,2,4.8.4,6.8-1.8,2.2-5,4-10,5.6-3.2,1-5.8,2.6-8,5h0c-1.9,1.9-3.8,4.5-5.6,7.7-2,3.4-4,7.4-6,12-2.4,6.3-7,14.9-14,26.3-3.3,5.4-9.7,11.6-19.5,18.9-3.1,2.4-6.2,4.6-9.2,6.6,6.3.7,13.5,1.6,21.4,2.7.2,0,.4,0,.6.1,10.8,3,20.5,9.1,29.1,18,4.1,4.2,10.6,12.5,19.3,24.6,1.3,1.7,2.6,3.6,3.7,5.5,2.1,3.3,4.2,6.7,6.3,10,1.2,1.6,2.4,3.4,3.4,5.2,4.7,6,9.2,9.1,13.3,9.1s1.1,0,1.6-.2l.8-.2c.7-.3,1.5-.6,2.4-.7.6-.1,1.1-.2,1.6-.2,3.1,0,5.5,1.9,6,4.8,1.7,9.2-3.2,18-14.5,26.1-8.6,6.2-17.8,10.3-27.4,12.2-6.4,1.3-12.3,1.9-17.6,1.9s-13.4-1.2-18.7-3.5c-9.3-4.1-17.4-12.5-24.1-24.9v-.2c-6.8-13.7-13.7-27.4-20.5-41-10.1-17.2-19.9-26.4-28.1-26.6h-.7c-1.6,0-3.4.3-5.5.8-1.1.3-2.1.5-3.1.8l17.6,72.1c.5,2,1.3,4.3,2.4,6.8,1.1,2.5,2.4,4.8,4,7,1.6,2.3,3.4,4.5,5.1,6.6,1.4,1.7,2.8,2.8,4.2,3.4,1.9.9,3.1,2.9,2.9,5s-1.7,3.9-3.8,4.4c-27.1,6.5-54.5,13.6-81.4,21-.4.1-.9.2-1.3.2l-.2.2ZM359.5,240.5c-18.6,0-34.9-3.7-48.4-11-21.1-11.2-34.5-30.6-39.5-57.6-4.5-23.9.6-44.7,15.2-61.9,14.4-16.9,35.7-27.7,63.4-31.9,5.9-.9,11.8-1.4,17.5-1.4,12.9,0,25.4,2.3,37,6.9,18.6,7.2,31,19,36.7,35.1,0,.3.2.5.3.8,0-.3,0-.7-.1-1-2-17.4,5.1-31.9,21-43,13.5-9.5,30.2-15.1,49.7-16.8,2.7-.2,5.8-.3,9.4-.3s9.4.2,15,.5c3,.2,6,.3,9.1.5,6.8.4,12.3.6,16.9.6s4.4,0,6.2-.2c.8,0,2.8-.3,7.2-1,3.5-.6,8.1-1.4,14.5-2.6h.9c2.3,0,4.4,1.6,4.9,4l1,4.7v.7c.6,10.5-3.3,20-11.4,28.2-7.9,8.2-17.7,12.8-29.2,13.6-2.1,0-4.2.2-6.1.2-10.7,0-18-2.4-22.4-7.2-.9-1-1.4-2.4-1.3-3.8.5-4.8.4-6.4.4-6.9,0-1.9-.5-7-14.3-7s-3.7,0-5.8.3c-5.3.5-9.7,1.9-13.1,4.2-4.5,2.9-4.8,5.6-4.6,7.7.2,1.6,2.6,7,26.9,10,14.1,1.8,26.4,3.7,36.6,5.5,9.6,1.7,16.7,3.6,21.1,5.5,21.9,8.8,33.7,24.4,34.8,46.4.9,16.5-5.1,30.5-17.8,41.4-12.1,10.6-27.1,16.7-44.3,18.1-1.7.1-3.6.2-5.5.2-6.7,0-14.8-.7-25-2.3-3.5-.5-7-.9-10.5-1.4-8.4-1.2-15.6-1.9-21.6-1.9s-4.7.1-6.7.3c-5.3.6-9.3,2.5-12.4,6-.9,1.1-2.3,1.7-3.8,1.7h0c-5.5,0-12.4-3.2-14.1-18.4-.5-4.2,0-8.3,1.7-12.2,1.5-3.7,3.7-7.1,6.5-10.1s6.1-5.5,9.9-7.4,7.9-3.1,12.3-3.6c1.3-.1,2.6-.2,4-.2,10.9,0,23.8,4.5,38.3,13.3,13.7,8.4,24.1,12.6,31,12.6s.7,0,1.1,0c4.3-.3,7.8-1.8,10.7-4.4,2.6-2.4,3.7-5.2,3.5-8.6-.5-8.3-9.8-13.9-27.6-16.7-19.6-3.2-34-5.2-42.7-6.4-13.9-1.9-15-2-15.9-2.3-16.9-5-28.4-13.8-34.3-26.3.5,2.2.8,4.4,1.1,6.5l.4,3.3c.2,1.5.2,3,.1,4.5-.2,2.4-2,4.3-4.4,4.6-32.2,3.9-64.7,8.5-96.7,13.7l1.4,8.9c2.3,14,5.7,24.1,10.3,30.1h0c4.9,6.6,11.7,9.9,20.9,9.9s4.4-.2,6.8-.5c8.7-1.3,15.1-4.3,19.7-9.4,4.4-4.9,6.1-10.6,5.2-17.6-.6-4.8-3-9.2-7.4-13.3-1.2-1.1-1.7-2.8-1.5-4.4.2-1.6,1.3-3,2.7-3.7,5-2.5,8.6-3.8,11.2-4.2,1.8-.2,3.5-.4,5.2-.4,6.3,0,11.9,1.7,16.4,5,5.8,4.3,9.3,10.4,10.2,18.4,1.7,14.3-5.2,26.9-20.7,37.4-12.3,8.3-26.3,13.7-41.6,15.9-9,1.3-17.7,2-25.6,2h0ZM341.9,110.2c-.7,2.7-1.4,8.4-.9,19.9,0,1.9.2,3.8.4,5.8.2,2,.5,4,.9,6.4l.2,1c10.8-1.7,21.7-3.4,32.5-4.9l-2.8-19.5c-2.8-19.4-11.3-19.4-14.6-19.4s-2,0-3,.2c-6.5,1-10.6,4.3-12.6,10.5h-.1ZM670.8,216.9c-14.5,0-27.2-3.6-37.8-10.7-12.8-8.4-19.7-20-20.4-34.4-.6-13.2,4.1-25,14.1-35.1h0c8.8-8.5,20.3-15,34.4-19.3,8.9-2.8,17.2-5.7,24.5-8.5,5.6-2.2,11.6-4.5,17.6-6.7,6.1-3.3,6.8-6.8,6.8-9.2,0-12.8-6.4-14.5-12.6-14.5h-.4c-5.6,0-7.7,1.4-8.4,2.2-.4.4-1,1.2-.9,3.1,0,0,0,.5.7,1.9l1.5,3.3c1,2.2,1.5,4.1,1.5,5.8,0,6.6-7.6,10.1-15.2,12.5-6.6,2.3-12.2,3.5-17,3.7h-1.3c-12.6,0-23.1-5.5-31.3-16.5-7.1-9.1-11-19.6-11.6-31.3,0-1.3,0-2.3.2-3.2.6-2.6,2.6-4.3,5.1-4.4h.2c.9,0,1.8.2,3.9.9,1.3.4,2.6.9,3.9,1.3,1.4.4,2.8.9,4.3,1.3,1.2.3,1.9.4,2.3.4l4.3-.2c8.5-.3,15.3-.6,21-1,6-.4,10.9-.8,15.1-1.3,1.1-.2,2.6-.5,4.3-.8s4.1-.8,7.1-1.5c5.7-1.2,9.8-1.8,12.7-1.8h3.6c26.2,0,45,4.1,56.1,12.1,12.5,9.4,18.7,26.8,18.3,51.7l-.9,62.9c0,5.6,2.2,14.2,6.8,25.6.6,1.6.4,3.3-.5,4.7s-2.5,2.2-4.1,2.2,0,0,0,0c-14.2-.3-28.6-.4-42.8-.4h-15.5c-2,0-3.9-1.2-4.6-3.1-.7-1.8-1.5-3.7-2.2-5.5-12.7,8.9-26.2,13.6-40.2,13.9h-2.6ZM709.1,127c-6,2.3-12,7-18,14.2-7.6,9.2-11.4,17.5-11.3,24.7,0,5.5,1.5,9.8,4.3,13.3,3,3.8,6.7,5.5,11.6,5.5h.3c1.2,0,3.8-.6,8.3-4.4h0c4.8-3.8,4.9-5.7,4.9-5.9l-.4-43.2v-4.1h.3ZM862.9,215.2c-22.3-1.2-45-2-67.4-2.6-2.2,0-4.1-1.5-4.7-3.6-.6-2.1.2-4.3,2-5.5,4.6-3.1,7-8.7,7.2-17.2l2.8-102.5c0-3.4-.6-6.6-2.1-9.7-1.9-3.9-3.8-7.7-5.7-11.3-.8-1.6-.7-3.5.2-5s2.5-2.4,4.2-2.4,0,0,0,0c21.1.5,42.4,1.3,63.5,2.3,2.8,0,4.9,2.5,4.7,5.2v2.8c10-5.7,20.4-8.6,30.7-8.6s2.4,0,3.5,0c14.9,1,26.9,7.5,35.8,19.5,8,10.8,11.5,23,10.4,36.1-.7,9-3.8,16-9.2,20.7-.9.8-2.1,1.2-3.3,1.2s-.3,0-.4,0c-18-1.4-35.3-2.6-52.9-3.6-1.8-.1-3.4-1.2-4.2-2.8-.8-1.6-.6-3.6.5-5.1,4.5-6.2,6.8-12.7,7.3-19.9.2-3.3-.4-6.3-1.9-9.3v-.2c-2.1-4.6-4.4-4.7-5.2-4.8h-1.1c-3.7,0-6.6,1.1-8.9,3.4-2.6,2.6-4,5.8-4.2,9.7l-2,41.5c-.7,9.2-1.2,17.3-1.5,24.3l-.8,17c-.4,8.2,1.9,15.4,6.9,22.2,1.2,1.6,1.3,3.6.4,5.3-.9,1.6-2.6,2.6-4.4,2.6s-.2,0-.3,0v.2ZM313.1,84.8c-1.3,0-2.5-.5-3.4-1.4l-3.8-3.6c-1-1-1.6-2.3-1.6-3.7s.6-2.7,1.7-3.7c14.3-12.7,33.1-29.4,39.6-36.3.2-.8.6-1.6,1.3-2.3,2.2-2.2,4.3-4.3,6.5-6.1,2.8-2.3,6.9-3.9,12.6-4.7.8-.1,1.6-.2,2.4-.2,4.1,0,8.1,1.5,11.9,4.5,4.5,3.5,7.1,7.6,7.7,12.1s-.1,12.8-11.8,17.9c-20.3,8.6-60.5,26.7-61,26.9-.7.3-1.4.4-2,.4v.2Z"/>
  <path class="st0" d="M368.3,28c3,0,5.9,1.2,8.8,3.4,3.5,2.7,5.4,5.7,5.9,8.8.8,5.5-2.2,9.7-8.9,12.7-20.5,8.7-61,26.9-61,26.9,0,0-2.5-2.4-3.8-3.6,27.2-24.1,41.9-37.4,43-40.6-.6.6-1.3,1.2-1.9,1.8,2.1-2.1,4.1-4,6.1-5.7s5.4-2.9,10-3.6c.5,0,1.1-.1,1.6-.1M235.2,51.6c9.9,0,17.6,2.7,23.1,8-1.2,1.4-3.7,2.8-7.7,4-4,1.3-7.3,3.4-10.1,6.3-2.2,2.2-4.3,5.1-6.4,8.7-2.1,3.5-4.1,7.8-6.3,12.6-2.3,6.1-6.9,14.7-13.6,25.6-3,4.9-9.1,10.7-18.2,17.6-7.9,6-15.3,10.8-22.3,14.4,8.5.3,20.8,1.5,36.7,3.9,9.9,2.8,18.9,8.3,26.8,16.7,3.8,3.9,10.1,11.9,18.9,24.2,1.2,1.6,2.4,3.3,3.4,5.1,2.1,3.4,4.3,6.9,6.4,10.3,1.2,1.6,2.3,3.3,3.4,5.1,5.8,7.5,11.6,11.3,17.4,11.3s1.7,0,2.5-.2c.5-.1,1.1-.2,1.6-.3.4-.3.9-.5,1.6-.6h.7c.6,0,1,.2,1.1.7,1.3,7.2-2.9,14.3-12.5,21.1-8,5.8-16.5,9.6-25.5,11.4-6.1,1.2-11.6,1.8-16.6,1.8s-12-1-16.7-3.1c-8.3-3.7-15.5-11.2-21.7-22.7-6.8-13.7-13.7-27.5-20.6-41.2-11.3-19.2-22.2-29-32.4-29.2h-.8c-2,0-4.2.3-6.7.9-1.6.4-3,.8-4.3,1.2s-2.5.9-3.6,1.3c6.2,25.5,12.5,50.9,18.7,76.4.6,2.3,1.5,4.9,2.7,7.6,1.2,2.8,2.7,5.4,4.5,7.8,1.7,2.4,3.5,4.8,5.4,7s3.8,3.8,5.9,4.7c-27.3,6.5-54.5,13.6-81.6,21.1,1.4-3.1,2.4-8.3,2.9-15.6.4-6.9,0-12.5-1.1-16.7-11.8-43.5-23.7-87-35.5-130.5-2.6-9.4-8.4-18.5-17.8-27.3,29.2-8,58.5-15.4,87.9-22.4-6.4,10.9-8.3,21.4-5.8,31.5,3.3,13.6,6.7,27.2,10,40.8.6-.1,1.1-.3,1.7-.4,6.7-1.6,12.8-5,18.2-10.2,1.8-1.4,4.7-5.2,8.8-11.2,2.4-3.2,4.2-5.7,5.4-7.5s2-3.1,2.4-3.7c1.1-2.7,2-5.2,2.9-7.7,1.7-5.1,3.5-10.1,5.2-15.2,1.1-2.7,2.1-5.2,3-7.7,5.5-12.2,12.5-20.8,20.9-25.8,6-3.5,13.9-6.2,23.7-8.2,5-1,9.7-1.5,13.9-1.5M703.1,57.8c25.4,0,43.2,3.9,53.2,11.2,11.2,8.4,16.6,24.3,16.2,47.6-.3,21-.6,41.9-.9,62.9,0,6.4,2.3,15.5,7.1,27.5-14.3-.3-28.6-.4-42.9-.4h-15.5c-1.5-3.9-3.1-7.7-4.7-11.6-13.5,10.8-27.6,16.4-42.6,16.8h-2.3c-13.6,0-25.2-3.2-35-9.8-11.4-7.5-17.6-17.6-18.2-30.5-.6-11.7,3.6-22.2,12.6-31.3,8.2-7.9,19-14,32.4-18.2,8.9-2.8,17.2-5.7,24.9-8.6,5.8-2.3,11.8-4.6,17.9-6.8,6.5-3.5,9.8-8,9.7-13.8,0-12.9-6-19.5-17.6-19.5h-.5c-9.7,0-14.4,3.6-14.3,10.4,0,1,.4,2.3,1.1,3.9.5,1.1,1,2.2,1.4,3.2.7,1.6,1.1,2.9,1.1,3.9,0,2.6-3.9,5.1-11.8,7.7-6.1,2.1-11.3,3.3-15.6,3.4h-1.2c-11,0-20.1-4.8-27.4-14.5-6.5-8.3-10.1-17.8-10.5-28.5,0-1.6,0-2.4.6-2.4h0c.2,0,1,.2,2.3.6,1.3.4,2.6.9,4,1.3,1.4.4,2.9.9,4.4,1.3,1.4.4,2.6.6,3.7.6s.2,0,.3,0c1.4,0,2.8,0,4.1-.2,8.1-.3,15.1-.6,21.1-1s11.2-.8,15.5-1.3c1.1-.2,2.6-.5,4.5-.8,1.8-.3,4.3-.8,7.2-1.5,5.3-1.1,9.2-1.6,11.8-1.7h3.5M714.3,120.6c-9.2,1.1-18.3,6.9-27.1,17.4-8.5,10.3-12.6,19.7-12.4,28,.2,6.6,2,12,5.4,16.3,4,5,9.2,7.4,15.6,7.4s.3,0,.4,0c3.3,0,7.1-1.9,11.4-5.5,4.6-3.6,6.9-6.9,6.8-9.9,0-14.4-.3-28.8-.4-43.2,0-3,0-6.5.2-10.4M799.5,60.4c21.1.5,42.2,1.3,63.3,2.3-.2,4.2-.4,8.3-.6,12.5,12-8.7,24.2-13.1,36.3-13.1s2.1,0,3.2,0c13.4.9,24.1,6.7,32.1,17.5,7.3,9.9,10.4,20.9,9.4,32.7-.6,7.7-3.2,13.5-7.5,17.3-17.5-1.4-35.1-2.6-53-3.6,5.1-7.1,7.7-14.6,8.2-22.5.3-4.2-.5-8.1-2.4-11.8-2.2-4.9-5.4-7.5-9.5-7.7h-1.4c-5.1,0-9.2,1.6-12.4,4.8-3.5,3.5-5.4,7.8-5.6,13-.7,13.8-1.3,27.6-2,41.4-.7,9.3-1.2,17.4-1.5,24.4-.3,6.7-.6,12.4-.8,17-.5,9.3,2.2,17.8,7.9,25.5-22.5-1.2-45-2-67.5-2.6,6-4,9.1-11.1,9.4-21.2.9-34.2,1.9-68.3,2.8-102.5,0-4.2-.7-8.2-2.6-12-1.9-3.8-3.8-7.6-5.8-11.5M591.4,61.2c.3,1.6.6,3.1,1,4.7.5,9.1-2.9,17.3-10,24.5-7.1,7.4-15.7,11.4-26,12.1-2,0-3.9.2-5.7.2-9.1,0-15.3-1.8-18.7-5.6.4-3.8.5-6.4.4-7.8-.6-7.7-7-11.6-19.3-11.6s-4,0-6.2.3c-6.2.5-11.4,2.2-15.5,5-5,3.3-7.2,7.4-6.8,12.3.7,7.3,11.2,12,31.2,14.5,14.8,1.9,26.8,3.8,36.3,5.5,9.4,1.7,16.1,3.5,20.1,5.2,20.2,8.1,30.7,22.2,31.7,42,.8,15.1-4.7,27.5-16.1,37.3-11.5,10-25.2,15.6-41.5,16.9-1.6.1-3.3.2-5.1.2-6.5,0-14.5-.8-24.2-2.2-3.5-.5-7.1-1-10.6-1.4-8.7-1.3-16.1-1.9-22.2-1.9s-5.1.1-7.2.3c-6.5.7-11.7,3.3-15.6,7.7-5.1,0-8.1-4.7-9.2-13.9-.4-3.4,0-6.6,1.4-9.8,1.3-3.1,3.1-6,5.5-8.6s5.2-4.7,8.5-6.3c3.3-1.7,6.8-2.7,10.5-3.1,1.1-.1,2.3-.2,3.4-.2,9.9,0,21.9,4.2,35.7,12.6,14.5,8.8,25.6,13.3,33.6,13.3s1,0,1.5,0c5.4-.4,10-2.3,13.7-5.8,3.7-3.4,5.4-7.6,5.1-12.6-.7-10.9-11.3-18.1-31.8-21.3-19-3.1-33.3-5.1-42.8-6.4-9.5-1.3-14.6-2-15-2.1-21.1-6.2-32.8-18.5-35-37.3-1.8-15.4,4.5-28.2,18.9-38.4,12.7-8.9,28.5-14.3,47.2-15.9,2.5-.2,5.5-.3,9-.3s9.1.2,14.7.5c3,.2,6.1.3,9.1.5,6.7.4,12.5.6,17.2.6s4.6,0,6.5-.2c1.4,0,4-.4,7.7-1.1,3.8-.6,8.6-1.5,14.6-2.6M953.2,68.7c21.3,1.8,42.6,3.9,63.8,6.3,0,1.2-.3,2.4-.4,3.6-.5,3.6-1,7.3-1.6,10.9-3.3,30.2-6.7,60.4-10,90.6-.6,5.7.3,10.9,2.9,15.6,2.8,5.1,7.3,8,13.6,8.8.9.1,1.7.2,2.6.2,5.4,0,10.5-2,15.4-6.1,5.9-4.7,9.3-9.8,10-15.6,3.2-25,6.4-50,9.7-75.1,1.5-12,0-21.5-4.4-28.5,21.8,2.7,43.6,5.8,65.3,9.1-6.2,40.8-12.4,81.5-18.6,122.3-1.5,9.6.3,17.8,5.2,24.6-21.1-3.3-42.3-6.3-63.5-9,.2-1.6.5-3.6.8-6.2.3-2.6.7-5.6,1.2-9.2-5.2,2.5-9.8,4.7-13.9,6.4s-7.7,3-10.9,3.8c-5.1,1.2-10.6,1.7-16.4,1.7s-7-.2-10.7-.6c-6.1-.7-11.8-2.5-17.2-5.7-18-10.4-26.3-25.3-24.6-45.1,2.2-24.6,4.4-49.3,6.5-73.9,1.1-12.7-.6-22.3-5.1-28.9M367.7,81.8c12.4,0,24.1,2.2,35.2,6.6,17.4,6.7,28.6,17.5,33.8,32.1,1.4,3.8,2.5,7.4,3.3,10.7.8,3.3,1.5,6.5,1.8,9.7.1,1,.2,2.1.4,3.3.1,1.2.2,2.4,0,3.6-34,4.1-68,9-101.8,14.5.7,4.6,1.5,9.2,2.2,13.8,2.4,14.9,6.2,25.7,11.2,32.3,5.8,8,14.1,11.9,24.9,11.9s4.9-.2,7.5-.6c9.8-1.4,17.3-5.1,22.7-11,5.4-5.9,7.6-13.1,6.5-21.6-.8-5.9-3.7-11.3-8.9-16.3,4.4-2.2,7.7-3.4,9.6-3.7,1.6-.2,3.1-.3,4.6-.3,5.3,0,9.8,1.3,13.4,4,4.7,3.4,7.4,8.4,8.2,14.9,1.5,12.4-4.8,23.3-18.5,32.7-11.8,7.9-24.9,13-39.6,15.1-8.8,1.3-17.1,2-24.9,2-17.8,0-33.1-3.4-46-10.4-19.7-10.4-32.2-28.4-37-54.1-4.2-22.2.4-41.5,14.1-57.7,13.5-15.9,33.8-26.1,60.4-30.2,5.7-.9,11.3-1.3,16.7-1.3M338.7,148.9c14-2.2,27.9-4.4,41.9-6.4-1.2-8.2-2.3-16.3-3.5-24.5-2.2-15.7-8.8-23.7-19.5-23.7s-2.5,0-3.8.3c-8.4,1.3-14,6-16.7,14-1.2,4.4-1.5,11.6-1.1,21.6,0,2,.2,4,.5,6.1.2,2.1.5,4.3.9,6.6,0,.6.2,1.4.4,2.4.2,1,.5,2.1.9,3.5M1139.3,91.4c20.8,3.4,41.6,7.1,62.3,11-.8,4.5-1.7,9-2.5,13.5,3.9-4.7,11-7.8,21.1-9.1,3.1-.4,6.2-.6,9.4-.6,5.1,0,10.3.5,15.6,1.6,12.5,2.5,22,5.7,28.3,9.3,5.9,3.5,12.7,10.3,20.4,20.3,2.6-1,5.6-2.1,8.9-3.2,3.3-1.1,7.2-2.2,11.5-3.5,5-1,10.1-1.6,15.3-1.6s14.2.9,21.7,2.8c23.5,5.8,36.5,19.5,38.8,40.4.4,5.5.2,9.8-.6,13.1-3.8,14-7.5,28-11.3,42-2.7,9.2-5,17.2-6.8,24.1-1.9,6.9-3.4,12.8-4.7,17.6-1.9,7.1-1,14.4,2.6,22-22.6-6.1-45.2-11.9-67.9-17.4,6.4-5,10.8-12.3,13.1-22,7.1-28.7,14.2-57.5,21.4-86.2.9-3.7,0-7.7-2.9-12.1-2.9-4.4-6.4-7.1-10.7-8.1-1.6-.4-3.1-.6-4.7-.6-4.3,0-8.5,1.4-12.8,4.1-5.8,3.6-9.2,8-10.4,13.2-6.1,27.2-12.1,54.5-18.2,81.7-2.3,10.3-2,18.3.9,24.1-22.2-5.1-44.5-9.9-66.8-14.4,6.4-6.4,10.4-13.3,11.9-20.7,5.5-27.4,10.9-54.8,16.4-82.1,1-5.1.5-10.4-1.6-16.1-2.5-6.2-6.7-9.9-12.6-11-1.4-.3-2.8-.4-4.1-.4s-3.6.2-5.4.7c-3.2.8-6.2,2.1-9,3.8s-5.1,3.7-7.1,6.1-3.2,4.9-3.7,7.7c-5,27.2-10.1,54.3-15.1,81.5-.5,2.5-.3,6.9.6,13.1,1.2,6.7,2.3,10.8,3.3,12.5-22.8-4.3-45.6-8.3-68.4-11.9,6.3-4.6,10.2-11.9,11.9-21.9,5.3-32.7,10.7-65.5,16-98.2,1.5-9,0-17.4-4-25.1M368.3,18c-1,0-2,0-3.1.2-6.6,1-11.5,2.9-15.1,5.8-2.3,1.9-4.6,4.1-6.8,6.4-.9.9-1.6,2-2.1,3.1-6.8,7.1-25.5,23.7-38.5,35.2-2.1,1.9-3.3,4.5-3.4,7.3,0,2.8,1.1,5.5,3.1,7.4,1.3,1.2,3.8,3.6,3.8,3.6.1,0,.2.2.3.3-9.1,5.2-17,11.7-23.5,19.4-15.6,18.4-21.1,40.6-16.3,66,3.2,17,9.5,31.1,18.8,42.3-2.2-.7-5-3-7.9-6.7-1.1-1.8-2.2-3.6-3.4-5.2-2-3.3-4.1-6.5-6.1-9.8-1.2-2.1-2.5-4.1-3.9-5.9-8.8-12.2-15.4-20.7-19.8-25.1-9.1-9.6-19.7-16.1-31.3-19.4-.4-.1-.8-.2-1.3-.3-3-.4-5.9-.8-8.7-1.2,9.8-7.4,16-13.6,19.6-19.5,7.1-11.6,11.9-20.5,14.4-27,1.9-4.4,3.8-8.2,5.7-11.4,1.6-2.8,3.3-5.1,4.9-6.7,0,0,.1,0,.2-.2,1.6-1.7,3.5-2.9,5.8-3.6,6.1-1.9,9.9-4.1,12.4-7.2,3.3-4,3-9.9-.8-13.5-7.4-7.2-17.5-10.9-30-10.9s-10.2.6-15.8,1.7c-10.8,2.1-19.8,5.3-26.8,9.3h-.1c-10.2,6.1-18.5,16.3-24.9,30.3,0,.2-.2.4-.3.6-.8,2.2-1.8,4.6-2.9,7.4,0,.2-.1.3-.2.5-1.7,5-3.5,10.1-5.2,15.2-.7,2-1.6,4.3-2.6,6.8-.2.3-.6,1-1.5,2.3-1.2,1.7-2.9,4-5.2,7.3,0,0-.2.2-.2.3-4.8,7.1-6.5,8.8-6.8,9.1s-.4.3-.6.5c-1.9,1.8-3.9,3.3-6,4.6l-7.3-29.9c-1.8-7.5-.3-15.4,4.8-24,2-3.5,1.8-7.8-.6-11-1.9-2.6-4.9-4.1-8-4.1s-1.5,0-2.3.3c-29.4,6.9-59.1,14.5-88.3,22.4-3.5,1-6.2,3.7-7.1,7.2s.2,7.2,2.9,9.7c7.9,7.4,12.9,15,15,22.6l35.5,130.5c.6,2.1,1.2,6.2.8,13.4-.6,8.5-1.7,11.4-2,12.1-1.6,3.5-1.1,7.7,1.4,10.7,1.9,2.3,4.7,3.5,7.6,3.5s1.8-.1,2.7-.4c26.8-7.4,54.2-14.5,81.2-21,4.1-1,7.2-4.5,7.6-8.7.4-4.2-1.9-8.3-5.8-10.1-.4-.2-1.2-.7-2.5-2.1-1.7-2-3.3-4.1-4.8-6.2-1.4-1.9-2.5-4-3.5-6.1-1-2.2-1.7-4.2-2.1-5.9l-14.1-57.5-2.4-9.7c1.2-.2,2.1-.3,2.6-.3s.2,0,.4,0h.2c2.9,0,11.1,2.5,23.8,24,6.9,13.5,13.7,27.3,20.4,40.8,0,.1.1.2.2.3,7.2,13.4,16.1,22.5,26.5,27.1,5.9,2.6,12.9,4,20.7,4s11.9-.7,18.6-2c10.3-2.1,20.2-6.5,29.3-13.1,9.7-7,15.3-14.6,16.6-22.7,1.5.9,3,1.8,4.6,2.6,14.2,7.7,31.3,11.6,50.7,11.6s17.1-.7,26.4-2.1c16.1-2.4,30.8-8,43.7-16.7h0c5.7-3.9,10.4-8.2,14.1-12.7.8,2.9,1.9,5.4,3.3,7.5,3.4,5.1,8.5,8,14.4,8h0c2.9,0,5.6-1.2,7.5-3.4,2.2-2.5,5.1-3.9,9.2-4.4,1.8-.2,3.9-.3,6.2-.3,5.7,0,12.7.6,20.8,1.8h.2c3.5.5,7,.9,10.5,1.4,10.3,1.6,18.7,2.3,25.6,2.3s4.1,0,5.9-.2c18.3-1.4,34.2-7.9,47.2-19.3,7.3-6.3,12.6-13.4,15.8-21.5,3.4,9.8,10.1,18,20,24.4,11.4,7.6,25,11.5,40.5,11.5s1.7,0,2.5,0c13.1-.3,25.7-4.2,37.7-11.4,1.5,3.7,5.2,6.2,9.2,6.2s0,0,0,0h15.5c14.2,0,28.6.1,42.7.4h.2c3.3,0,6.4-1.6,8.2-4.3,1.7,2.9,4.9,4.9,8.4,4.9,22.3.5,45,1.4,67.3,2.6h.5c3.7,0,7.1-2,8.8-5.3,1.8-3.4,1.5-7.6-.8-10.7-4.3-5.8-6.3-12-6-19v-2.6c0,0,.8-14.4.8-14.4.3-6.9.8-15.1,1.5-24.1v-.2l1-20.7,1-20.7c0-2.7,1-4.7,2.7-6.4.9-.9,2.3-1.9,5.4-1.9h.7c.2.2.6.8,1.1,1.9,0,0,0,.2.2.3,1,2.1,1.5,4.3,1.3,6.7-.4,6.2-2.5,11.9-6.4,17.3-2.1,3-2.5,6.9-.9,10.2,1.6,3.3,4.8,5.5,8.5,5.7,17.6,1,34.9,2.2,52.8,3.6h.8c2.4,0,4.8-.9,6.6-2.5.9-.8,1.8-1.7,2.7-2.7l-3.2,35.9c-1,11.8,1,22.5,6.1,31.8,5,9.1,12.9,16.8,23.5,22.9,6.5,3.8,13.7,6.2,21.1,7,4,.4,8,.7,11.8.7,6.6,0,12.8-.7,18.6-2h.3c3.1-.8,6.5-2,10.3-3.5.2,1.8.9,3.6,2,5.1,1.6,2.1,4,3.5,6.6,3.8,21,2.7,42.3,5.7,63.3,9,.5,0,1,.1,1.5.1,1,0,2-.1,2.9-.4,1.2.8,2.6,1.4,4.1,1.6,22.7,3.6,45.6,7.6,68.2,11.9.6.1,1.2.2,1.9.2,3.3,0,6.4-1.6,8.3-4.4,2.2-3.2,2.3-7.3.3-10.7-.2-.5-.9-2.6-2.1-9-1-7.4-.7-9.5-.6-9.8l15.1-81.5c.2-1.1.7-2.1,1.6-3.1,1.3-1.5,2.8-2.8,4.6-4,1.9-1.2,3.9-2,6.2-2.6,1-.3,2-.4,3-.4s1.5,0,2.2.2c1.8.4,3.7,1.2,5.2,4.8,1.4,3.9,1.8,7.3,1.2,10.5-5.5,27.4-10.9,54.8-16.4,82.2-1.1,5.4-4.1,10.5-9.2,15.6-2.6,2.6-3.6,6.4-2.5,10,1.1,3.5,4,6.2,7.6,6.9,22.1,4.4,44.5,9.2,66.5,14.3.7.2,1.5.3,2.2.3,3,0,6-1.4,7.9-3.9,2.4-3.1,2.8-7.2,1-10.7-1.3-2.5-2.3-7.5,0-17.3,6.1-27.3,12.1-54.5,18.2-81.8.2-.9.8-3.7,5.9-6.9,0,0,0,0,.2-.1,2.6-1.7,5-2.5,7.4-2.5s1.6,0,2.4.3c1.1.3,2.7.9,4.6,3.8,1.4,2.1,1.7,3.6,1.6,4.2-7.1,28.7-14.2,57.4-21.4,86.2-1.8,7.5-5,12.9-9.6,16.5-3,2.4-4.4,6.2-3.6,10,.8,3.7,3.7,6.7,7.4,7.6,22.5,5.4,45.3,11.2,67.6,17.3.9.2,1.7.3,2.6.3,2.9,0,5.8-1.3,7.7-3.6,2.5-3,3-7.2,1.3-10.7-2.6-5.4-3.3-10.4-2-15.1l3.9-14.5.8-3.1c1.9-6.9,4.1-15,6.7-23.9v-.2l5-18.5,6.3-23.5c1.2-4.4,1.5-9.8,1-16.5v-.3c-1.9-17.6-11.5-40.4-46.3-49.1-8.2-2-16.3-3.1-24.1-3.1s-11.8.6-17.4,1.8c-.2,0-.5,0-.7.2-4.4,1.3-8.4,2.5-11.8,3.6-.8.3-1.7.5-2.5.8-6.7-8-12.8-13.6-18.6-17.1,0,0,0,0-.2,0-7.3-4.2-17.9-7.6-31.3-10.4-5.9-1.2-11.9-1.8-17.6-1.8s-7.2.2-10.7.7c-2.9.4-5.6.9-8.2,1.5-1.3-2.9-3.9-5.2-7.3-5.8-20.7-3.9-41.8-7.7-62.5-11.1-.5,0-1.1,0-1.6,0-3.2,0-6.2,1.5-8.1,4.2-.4.5-.7,1.1-1,1.7-.5-4.4-3.9-8-8.4-8.7-21.7-3.3-43.8-6.4-65.6-9.1h-1.2c-3.4,0-6.6,1.7-8.5,4.7-2.1,3.3-2,7.5,0,10.7,3.1,4.9,4.1,12.2,2.9,21.8l-1,7.7-8.7,67.4c-.4,3-2.4,6-6.3,9,0,0,0,0-.2.1-3.1,2.5-6.1,3.8-9.1,3.8s-.9,0-1.4,0c-3.6-.4-5-1.7-6-3.6h0c-1.6-2.9-2.2-6-1.8-9.7l8.5-76.8,1.5-13.7,1.5-10.8v-1.1l.4-2.8c.6-5.5-3.4-10.4-8.8-11-21.2-2.3-42.8-4.5-64.1-6.3h-.9c-3.5,0-6.8,1.9-8.6,5-1.9,3.3-1.8,7.5.4,10.7,1.7,2.5,2.9,6,3.4,10.4-1.7-3.8-3.9-7.4-6.5-10.9-9.8-13.3-23-20.5-39.5-21.6-1.3,0-2.6,0-3.9,0-9,0-18,2-26.8,6-.4-.8-.9-1.5-1.5-2.1-1.8-2-4.3-3.1-6.9-3.3-21.1-1-42.5-1.8-63.6-2.3h-.2c-3.4,0-6.7,1.8-8.5,4.7-1.9,3-2,6.8-.4,9.9,1.9,3.6,3.8,7.4,5.6,11.2,1.1,2.4,1.7,4.8,1.6,7.4l-1.4,51.2-1.4,51.2c-.3,10-3.8,12.4-5,13.2-1,.7-1.9,1.5-2.6,2.5-4.9-12.5-5.9-19-5.8-22.2l.7-50.2.2-12.7c.4-26.6-6.4-45.3-20.2-55.7h0c-12.1-8.9-31.5-13.2-59.1-13.2s-2.4,0-3.7,0c-3.2,0-7.7.7-13.6,1.9h0c-3,.6-5.2,1.1-6.9,1.4-1.7.3-3.1.6-4.2.8-4.1.5-8.9.9-14.6,1.2-5.6.3-12.4.7-20.8,1-1.4,0-2.7,0-4.1.2,0,0-.3,0-.9-.2-1.4-.4-2.7-.8-4.2-1.2-1.3-.4-2.6-.8-3.8-1.2-2.4-.8-3.8-1.2-5.5-1.2s-.3,0-.4,0h0c-4.7.2-8.6,3.5-9.8,8.3-.3,1.4-.4,2.8-.4,4.6.6,12.7,4.8,24.2,12.6,34.1,7.8,10.4,17.5,16.4,28.9,18-11.2,4.4-20.7,10.4-28.3,17.7,0,0,0,.1-.2.2-4.8,4.9-8.5,10.1-11.1,15.7-4.6-17.2-16.8-30.1-35.8-37.7-1.4-.6-3.1-1.2-5-1.8,6.8-2.5,13-6.6,18.3-12.2,9.2-9.3,13.5-20,12.8-32,0-.5,0-1-.2-1.4l-1-4.7c-1-4.7-5.1-8-9.8-8s-1.2,0-1.9.2c-6.3,1.2-10.9,2-14.4,2.6-4.7.8-6.3.9-6.7,1-1.7,0-3.6.2-5.8.2-4.4,0-9.9-.2-16.5-.6-3.1-.2-6.1-.4-9.2-.5-5.7-.3-10.8-.5-15.2-.5s-7,0-9.8.4c-20.4,1.8-37.9,7.7-52.1,17.7-11.7,8.2-19.1,18.3-22.1,29.9-7.3-9.6-17.7-17.1-31.1-22.3-12.2-4.8-25.2-7.3-38.8-7.3s-9.1.3-13.8.8c8.8-3.9,17.5-7.7,24.1-10.5h.1c15.3-6.7,15.4-18.5,14.7-23.2-.8-5.8-4-10.9-9.6-15.3-4.7-3.7-9.8-5.6-15-5.6h.5ZM693.2,83.8c.8-.2,2.1-.4,4.1-.4h.3c4,0,7.5,0,7.6,9.5,0,.8,0,2.4-3.9,4.6-1.9.7-3.8,1.4-5.7,2.2.6-1.5,1-3.2.9-5.1,0-2.4-.7-4.9-2-7.7-.4-1-.9-2-1.3-3h0ZM494.7,93.8c0-.5.5-1.3,2.3-2.4h.1c2.7-1.8,6.3-2.9,10.8-3.3,1.9-.2,3.7-.3,5.3-.3,7.4,0,9.1,1.7,9.2,1.7h0s0,.2,0,.6c0,0,0,1.4-.4,6-.2,1.5,0,3.1.6,4.5-1.8-.2-3.6-.5-5.4-.7h0c-16.7-2-21.4-5.1-22.5-6.1h0ZM1112.8,225.5c-1.6-3.8-1.9-8.2-1.2-13.2l9.3-61.1,8.7-57.4c.2.8.5,1.7.9,2.5,3.1,5.7,4.1,11.9,2.9,18.7l-3.9,24.3-12,74c-.8,5.2-2.4,9.3-4.7,12.3h0ZM346.7,111.6c1.5-4.3,4-6.3,8.6-7,.8,0,1.6-.2,2.3-.2,2.2,0,7.5,0,9.6,15.1l1.5,10.3.6,4.3c-7.5,1.1-15.1,2.3-22.6,3.4,0-.7-.2-1.4-.2-2.1-.2-1.9-.3-3.7-.4-5.5-.5-11.2.2-16.2.7-18.3h-.1ZM688.1,176c-2-2.6-3.1-5.9-3.2-10.3,0-5.8,3.4-13.2,10.1-21.4,3.1-3.7,6.1-6.6,9.1-8.9l.2,17.3.2,20.7c-.4.5-1.2,1.5-3,2.9,0,0,0,0-.2.1-3.6,3-5.2,3.2-5.3,3.2h-.2c-3.3,0-5.6-1.1-7.7-3.7h0ZM433,158.9c3.5-.4,7-.9,10.5-1.3,4-.5,7.3-3.4,8.4-7.2,6.8,6.3,15.7,11.1,26.6,14.3,1.2.4,2,.5,16.7,2.5,8.7,1.2,23.1,3.2,42.5,6.4h0c6.9,1.1,22.9,4.4,23.4,12.1,0,1.9-.4,3.2-1.9,4.6-2,1.9-4.5,2.9-7.7,3.1h-.7c-4.1,0-12.3-2.1-28.4-11.9-15.3-9.3-29-14-40.9-14s-3,0-4.5.2c-4.9.5-9.7,1.9-14,4.1-4.3,2.2-8.1,5-11.3,8.5h0c-1.7-7.3-5.7-13.4-11.5-17.7-2.2-1.6-4.6-2.9-7.2-3.9h0v.2ZM352,170.5c16-2.5,32-5,48.1-7.2-1.8,1.5-2.9,3.7-3.3,6-.5,3.2.6,6.5,3,8.7,3.5,3.3,5.4,6.7,5.9,10.3.7,5.5-.5,9.8-3.9,13.6-3.8,4.2-9.3,6.8-16.8,7.8-2.1.3-4.2.5-6.1.5-7.6,0-12.9-2.5-16.8-7.8,0,0,0-.1-.1-.2-2.8-3.6-6.7-11.4-9.3-27.8l-.6-4h-.1Z"/>
</svg>