<?xml version="1.0" encoding="utf-8"?>
<!-- Generator: Adobe Illustrator 27.8.0, SVG Export Plug-In . SVG Version: 6.00 Build 0)  -->
<svg version="1.1" id="Layer_1" xmlns="http://www.w3.org/2000/svg" xmlns:xlink="http://www.w3.org/1999/xlink" x="0px" y="0px"
	 viewBox="0 0 298.6 77" style="enable-background:new 0 0 298.6 77;" xml:space="preserve">
<style type="text/css">
	.st0{fill:#FA6000;}
	.st1{fill:#1A2562;}
</style>
<g>
	<g>
		<path class="st0" d="M19.8,70.4V70h1.5v-8.7h-0.9c-0.8,0.1-1.4,0.6-1.7,1.6L18.5,64H18l0.1-3.1h7.8L26,64h-0.4l-0.3-1.1
			c0,0,0-0.1,0-0.1c-0.3-1-0.9-1.6-1.7-1.6h-0.9V70h1.1c0.1,0,0.1,0,0.2,0c0.2,0,0.3,0.2,0.3,0.4H19.8z"/>
	</g>
	<g>
		<path class="st0" d="M35.6,70c0.2,0,0.2,0.1,0.2,0.4h-3.6V70c0.4,0,0.6,0,0.8-0.1c0.3-0.1,0.4-0.4,0.4-0.9v-8.5h-1.2v-0.4h2.4v5.1
			c0.1-0.3,0.3-0.6,0.5-0.8c0.5-0.6,1.2-0.9,2-0.9c0.3,0,0.7,0.1,0.9,0.2c0.8,0.4,1.1,1.2,1.1,2.3V70H40c0.1,0,0.1,0,0.2,0
			c0.2,0,0.2,0.1,0.2,0.4h-3.5V70c0.4,0,0.6,0,0.8-0.1c0.2-0.1,0.3-0.4,0.3-0.9v-3c0-0.3-0.1-0.7-0.2-0.9c-0.3-0.6-0.7-0.9-1.3-0.9
			c-0.3,0-0.6,0.1-0.9,0.3c-0.7,0.4-1,1.1-1,2.1V70h0.8C35.5,70,35.6,70,35.6,70z"/>
	</g>
	<g>
		<path class="st0" d="M52.5,69.3c-0.5,0.8-1.4,1.2-2.5,1.2c-0.7,0-1.4-0.2-1.9-0.6c-0.9-0.6-1.4-1.6-1.4-2.9c0-0.7,0.1-1.4,0.4-1.9
			c0.6-1.1,1.5-1.6,2.8-1.6c0.7,0,1.3,0.2,1.8,0.5c0.7,0.4,1.1,1,1.1,1.7c0,0.4-0.1,0.7-0.4,0.9c-0.4,0.3-1.2,0.4-2.5,0.4l-1.9,0
			c0,0.4,0.1,0.8,0.1,1.2c0.3,1.3,1,2,2.1,2c0.1,0,0.2,0,0.3,0c0.8-0.1,1.4-0.6,1.8-1.4l0.4,0.1C52.7,69,52.6,69.2,52.5,69.3z
			 M49.2,64.1c-0.7,0.4-1.1,1.2-1.2,2.4l1.7,0c0.5,0,0.9,0,1.1-0.1c0.5-0.1,0.8-0.4,0.8-1c0-0.2,0-0.4-0.1-0.6
			c-0.2-0.6-0.7-0.9-1.5-0.9C49.7,63.9,49.4,64,49.2,64.1z"/>
	</g>
	<g>
	</g>
	<g>
		<path class="st0" d="M69.2,70.4V70h1.5v-8.7h-0.9c-0.8,0.1-1.4,0.6-1.7,1.6L67.9,64h-0.4l0.1-3.1h7.8l0.1,3.1H75l-0.3-1.1
			c0,0,0-0.1,0-0.1c-0.3-1-0.9-1.6-1.7-1.6h-0.9V70h1.1c0.1,0,0.1,0,0.2,0c0.2,0,0.3,0.2,0.3,0.4H69.2z"/>
	</g>
	<g>
		<path class="st0" d="M86.1,69.1c-0.1,0.2-0.2,0.4-0.4,0.6c-0.5,0.5-1.2,0.8-1.9,0.8c-0.3,0-0.6-0.1-0.9-0.2
			c-0.7-0.3-1.1-0.8-1.1-1.6c0-0.2,0-0.4,0.1-0.6c0.4-1,1.8-1.6,4.3-1.6v-1c0-1-0.5-1.6-1.5-1.6c-0.4,0-0.7,0.1-0.9,0.4
			c-0.1,0.1-0.2,0.3-0.3,0.7c-0.1,0.3-0.3,0.5-0.5,0.5c-0.1,0-0.1,0-0.2,0c-0.3-0.1-0.5-0.2-0.5-0.6c0-0.2,0.1-0.4,0.2-0.5
			c0.4-0.5,1.2-0.8,2.4-0.8c0.1,0,0.2,0,0.3,0c1.5,0.1,2.3,0.9,2.3,2.4v3.3c0,0.5,0.2,0.8,0.4,0.8c0.3,0,0.5-0.4,0.6-1.2l0.4,0
			c0,0.1,0,0.1,0,0.2c-0.1,1-0.5,1.5-1.3,1.5C86.6,70.5,86.2,70.1,86.1,69.1z M84.9,69.7c0.6-0.3,1-0.8,1.2-1.5v-1.3
			c-0.8,0-1.5,0.1-1.9,0.2c-0.8,0.2-1.2,0.6-1.2,1.3c0,0.2,0,0.3,0,0.5c0.1,0.6,0.5,1,1.2,1C84.5,69.9,84.7,69.9,84.9,69.7z"/>
	</g>
	<g>
		<path class="st0" d="M97,70.1c0.7,0,1.2-0.2,1.5-0.7c0.1-0.2,0.1-0.3,0.1-0.5c0-0.4-0.3-0.8-1-1.1c-0.1-0.1-0.4-0.2-0.7-0.3
			c-0.9-0.4-1.4-0.7-1.7-1c-0.3-0.3-0.5-0.8-0.5-1.2c0-0.7,0.4-1.2,1.2-1.5c0.4-0.1,0.8-0.2,1.2-0.2c0.7,0,1.3,0.1,1.8,0.4
			c0-0.3,0.1-0.5,0.2-0.5c0.1,0,0.1,0,0.2,0v2h-0.4c0-1-0.6-1.5-1.6-1.5c-0.8,0-1.3,0.2-1.5,0.7c-0.1,0.1-0.1,0.3-0.1,0.4
			c0,0.5,0.3,0.8,1,1.2c0.1,0.1,0.4,0.2,0.7,0.3c0.9,0.3,1.4,0.7,1.7,1c0.3,0.3,0.5,0.7,0.5,1.2c0,0.9-0.5,1.4-1.4,1.7
			c-0.3,0.1-0.7,0.2-1.1,0.2c-0.8,0-1.4-0.2-2-0.6c0,0.3-0.1,0.4-0.2,0.5c-0.1,0-0.1,0-0.2,0v-2.4h0.4C95.3,69.4,95.9,70.1,97,70.1z
			"/>
	</g>
	<g>
		<path class="st0" d="M105.9,63.7h1.1v-1.5l1.2-0.3v1.8h2.5v0.4h-2.5v4.8c0,0.8,0.3,1.2,0.9,1.2c0.5-0.1,0.9-0.5,1.2-1.4l0.4,0.1
			c0,0,0,0,0,0c-0.2,1.2-0.8,1.8-1.8,1.8c-1.1,0-1.7-0.7-1.8-2v-4.5h-1.1V63.7z"/>
	</g>
	<g>
		<path class="st0" d="M122.4,69.3c-0.5,0.8-1.4,1.2-2.5,1.2c-0.7,0-1.4-0.2-1.9-0.6c-0.9-0.6-1.4-1.6-1.4-2.9
			c0-0.7,0.1-1.4,0.4-1.9c0.6-1.1,1.5-1.6,2.8-1.6c0.7,0,1.3,0.2,1.8,0.5c0.7,0.4,1.1,1,1.1,1.7c0,0.4-0.1,0.7-0.4,0.9
			c-0.4,0.3-1.2,0.4-2.5,0.4l-1.9,0c0,0.4,0.1,0.8,0.1,1.2c0.3,1.3,1,2,2.1,2c0.1,0,0.2,0,0.3,0c0.8-0.1,1.4-0.6,1.8-1.4l0.4,0.1
			C122.6,69,122.5,69.2,122.4,69.3z M119.1,64.1c-0.7,0.4-1.1,1.2-1.2,2.4l1.7,0c0.5,0,0.9,0,1.1-0.1c0.5-0.1,0.8-0.4,0.8-1
			c0-0.2,0-0.4-0.1-0.6c-0.2-0.6-0.7-0.9-1.5-0.9C119.6,63.9,119.3,64,119.1,64.1z"/>
	</g>
	<g>
	</g>
	<g>
		<path class="st0" d="M145.3,61.7c1.2,0.9,1.8,2.2,1.8,4c0,1.5-0.5,2.7-1.5,3.6c-0.9,0.8-2,1.3-3.2,1.3c-1.1,0-2.1-0.3-2.9-1
			c-1.2-0.9-1.8-2.2-1.8-4c0-1.5,0.5-2.7,1.5-3.6c0.9-0.8,2-1.2,3.3-1.2C143.5,60.7,144.4,61,145.3,61.7z M143.6,69.9
			c1.3-0.6,1.9-2,1.9-4.3c0-2.9-1.1-4.4-3.1-4.4c-0.3,0-0.6,0-0.8,0.1c-1.5,0.4-2.3,1.9-2.3,4.4c0,0.8,0.1,1.4,0.2,2
			c0.4,1.6,1.4,2.5,2.9,2.5C142.8,70.1,143.2,70,143.6,69.9z"/>
	</g>
	<g>
		<path class="st0" d="M157.3,70c0.2,0,0.2,0.1,0.2,0.4h-3.9V70c0.4,0,0.6,0,0.8-0.1c0.3-0.1,0.4-0.4,0.4-0.9v-5h-1.1v-0.4h1.1v-0.3
			c0-0.9,0.2-1.6,0.5-2.2c0.5-0.8,1.2-1.2,2.2-1.2c0.4,0,0.7,0.1,1,0.2c0.5,0.2,0.8,0.5,0.8,0.9c0,0,0,0.1,0,0.1
			c-0.1,0.3-0.3,0.4-0.6,0.4c-0.1,0-0.2,0-0.3-0.1c-0.1-0.1-0.2-0.3-0.4-0.6c-0.2-0.4-0.5-0.6-0.8-0.6c-0.1,0-0.3,0-0.4,0.1
			c-0.5,0.2-0.8,1.3-0.8,3.1v0.1h1.8v0.4H156V70h1.1C157.2,70,157.3,70,157.3,70z"/>
	</g>
	<g>
	</g>
	<g>
		<path class="st0" d="M173.8,70.4V70h1.5v-8.7h-0.9c-0.8,0.1-1.4,0.6-1.7,1.6l-0.3,1.1h-0.4l0.1-3.1h7.8L180,64h-0.4l-0.3-1.1
			c0,0,0-0.1,0-0.1c-0.3-1-0.9-1.6-1.7-1.6h-0.9V70h1.1c0.1,0,0.1,0,0.2,0c0.2,0,0.3,0.2,0.3,0.4H173.8z"/>
	</g>
	<g>
		<path class="st0" d="M190,70c0.2,0,0.2,0.1,0.2,0.4h-3.9V70c0.4,0,0.6,0,0.8-0.1c0.3-0.1,0.4-0.4,0.4-0.9v-5h-1.2v-0.4h2.3
			l0.1,1.6c0.1-0.3,0.3-0.6,0.6-0.9c0.5-0.5,1.1-0.8,1.7-0.8c0.1,0,0.2,0,0.3,0c0.5,0.1,0.7,0.4,0.7,0.9c0,0.1,0,0.1,0,0.2
			c-0.1,0.3-0.3,0.5-0.6,0.5c-0.1,0-0.1,0-0.2,0c-0.1,0-0.3-0.2-0.5-0.5c-0.1-0.3-0.3-0.4-0.5-0.4c-0.2,0-0.4,0.1-0.6,0.3
			c-0.6,0.6-0.9,1.4-0.9,2.3V70h1.1C189.9,70,189.9,70,190,70z"/>
	</g>
	<g>
		<path class="st0" d="M202.1,69.1c-0.1,0.2-0.2,0.4-0.4,0.6c-0.5,0.5-1.2,0.8-1.9,0.8c-0.3,0-0.6-0.1-0.9-0.2
			c-0.7-0.3-1.1-0.8-1.1-1.6c0-0.2,0-0.4,0.1-0.6c0.4-1,1.8-1.6,4.3-1.6v-1c0-1-0.5-1.6-1.5-1.6c-0.4,0-0.7,0.1-0.9,0.4
			c-0.1,0.1-0.2,0.3-0.3,0.7c-0.1,0.3-0.3,0.5-0.5,0.5c-0.1,0-0.1,0-0.2,0c-0.3-0.1-0.5-0.2-0.5-0.6c0-0.2,0.1-0.4,0.2-0.5
			c0.4-0.5,1.2-0.8,2.4-0.8c0.1,0,0.2,0,0.3,0c1.5,0.1,2.3,0.9,2.3,2.4v3.3c0,0.5,0.2,0.8,0.4,0.8c0.3,0,0.5-0.4,0.6-1.2l0.4,0
			c0,0.1,0,0.1,0,0.2c-0.1,1-0.5,1.5-1.3,1.5C202.7,70.5,202.3,70.1,202.1,69.1z M201,69.7c0.6-0.3,1-0.8,1.2-1.5v-1.3
			c-0.8,0-1.5,0.1-1.9,0.2c-0.8,0.2-1.2,0.6-1.2,1.3c0,0.2,0,0.3,0,0.5c0.1,0.6,0.5,1,1.2,1C200.5,69.9,200.7,69.9,201,69.7z"/>
	</g>
	<g>
		<path class="st0" d="M216,68.7c-0.5,1.2-1.4,1.8-2.5,1.8c-0.6,0-1.1-0.2-1.5-0.5c-0.8-0.6-1.2-1.6-1.2-2.9c0-0.8,0.2-1.5,0.5-2.1
			c0.6-1,1.5-1.6,2.6-1.6c0.9,0,1.6,0.3,2.1,0.9v-3.9h-1.5v-0.4h2.7l0,9.9h0.8c0.1,0,0.1,0,0.2,0c0.2,0,0.2,0.1,0.2,0.4h-2.3
			L216,68.7z M212.2,68.3c0.3,1.1,0.8,1.6,1.7,1.6c0.4,0,0.8-0.2,1.2-0.5c0.6-0.6,1-1.5,1-2.8c0-0.6-0.1-1.1-0.3-1.6
			c-0.3-0.8-0.9-1.2-1.6-1.2c-0.3,0-0.6,0.1-0.8,0.2c-0.8,0.4-1.2,1.4-1.2,2.9C212.1,67.5,212.1,67.9,212.2,68.3z"/>
	</g>
	<g>
		<path class="st0" d="M227.8,70c0.2,0,0.2,0.1,0.2,0.4h-3.6V70c0.4,0,0.6,0,0.8-0.1c0.3-0.1,0.5-0.4,0.5-0.9v-5h-1.3v-0.4h2.5V70
			h0.8C227.7,70,227.8,70,227.8,70z M227,61.7c-0.1,0.3-0.4,0.5-0.8,0.5c-0.1,0-0.2,0-0.3-0.1c-0.3-0.1-0.5-0.4-0.5-0.8
			c0-0.1,0-0.2,0.1-0.4c0.2-0.3,0.4-0.5,0.8-0.5c0.1,0,0.2,0,0.4,0.1c0.3,0.2,0.5,0.4,0.5,0.8C227.1,61.5,227.1,61.6,227,61.7z"/>
	</g>
	<g>
		<path class="st0" d="M234.1,63.7h1.1v-1.5l1.2-0.3v1.8h2.5v0.4h-2.5v4.8c0,0.8,0.3,1.2,0.9,1.2c0.5-0.1,0.9-0.5,1.2-1.4l0.4,0.1
			c0,0,0,0,0,0c-0.2,1.2-0.8,1.8-1.8,1.8c-1.1,0-1.7-0.7-1.8-2v-4.5h-1.1V63.7z"/>
	</g>
	<g>
		<path class="st0" d="M248,70c0.2,0,0.2,0.1,0.2,0.4h-3.6V70c0.4,0,0.6,0,0.8-0.1c0.3-0.1,0.5-0.4,0.5-0.9v-5h-1.3v-0.4h2.5V70h0.8
			C247.9,70,248,70,248,70z M247.2,61.7c-0.1,0.3-0.4,0.5-0.8,0.5c-0.1,0-0.2,0-0.3-0.1c-0.3-0.1-0.5-0.4-0.5-0.8
			c0-0.1,0-0.2,0.1-0.4c0.2-0.3,0.4-0.5,0.8-0.5c0.1,0,0.2,0,0.4,0.1c0.3,0.2,0.5,0.4,0.5,0.8C247.2,61.5,247.2,61.6,247.2,61.7z"/>
	</g>
	<g>
		<path class="st0" d="M260,64.1c1,0.6,1.5,1.6,1.5,3c0,1-0.3,1.8-0.9,2.5c-0.7,0.7-1.5,1.1-2.5,1.1c-0.7,0-1.4-0.2-2-0.6
			c-1-0.7-1.5-1.7-1.5-3c0-1,0.3-1.8,0.9-2.4c0.7-0.7,1.5-1,2.5-1C258.7,63.5,259.4,63.7,260,64.1z M256,68.2c0.3,1.3,0.9,1.9,2,1.9
			c0.2,0,0.4,0,0.6-0.1c1-0.3,1.5-1.3,1.5-3.1c0-0.3,0-0.6,0-0.8c-0.2-1.5-0.9-2.2-2-2.2c-0.3,0-0.5,0-0.7,0.1
			c-0.9,0.4-1.3,1.4-1.3,3C255.9,67.5,256,67.9,256,68.2z"/>
	</g>
	<g>
		<path class="st0" d="M271,70c0.2,0,0.2,0.1,0.2,0.4h-3.5V70c0.4,0,0.6,0,0.8-0.1c0.3-0.1,0.4-0.4,0.4-0.9v-5h-1.2v-0.4h2.3
			l0.1,1.6c0.1-0.3,0.3-0.6,0.5-0.8c0.5-0.6,1.1-0.9,1.9-0.9c0.4,0,0.8,0.1,1.1,0.3c0.7,0.5,1.1,1.2,1.1,2.3V70h0.8
			c0.1,0,0.1,0,0.2,0c0.2,0,0.2,0.1,0.2,0.4h-3.6V70c0.4,0,0.6,0,0.8-0.1c0.3-0.1,0.4-0.4,0.4-0.9v-3.1c0-0.3,0-0.6-0.1-0.8
			c-0.2-0.6-0.7-0.9-1.3-0.9c-0.3,0-0.6,0.1-0.9,0.3c-0.7,0.4-1,1.1-1,2.1V70h0.7C270.9,70,270.9,70,271,70z"/>
	</g>
	<g>
		<path class="st1" d="M5.7,46.6c1.8-0.5,2.4-1.9,2.4-6.8V13.1c0-4.9-0.6-6.3-2.4-6.8V5.6h12.1c12.4,0,16.3,6,16.3,11.8
			c0,7.9-5.8,13.5-16.9,13.5H13v9c0,4.9,0.5,6.3,2.4,6.8v0.8H5.7V46.6z M17.1,29.9c7.6,0,11.8-4.2,11.8-11.2
			c0-6.4-3.8-12.2-13.4-12.2c-0.8,0-1.8,0.1-2.5,0.1v23.4H17.1z"/>
	</g>
	<g>
		<path class="st1" d="M36.8,46.6c1.7-0.5,3.2-1.7,5-6.3l11.8-29.1c0.4-1.1,0.4-1.9-0.1-2.8l-0.5-1.3l4.5-2l14.7,35.3
			c1.9,4.5,3.3,5.7,4.5,6.2v0.8h-9.3v-0.8c1.9-0.5,1.4-1.7-0.5-6.2l-3.6-8.8H46.3l-3.5,8.7c-1.6,3.9-1.3,5.9,0.7,6.3v0.8h-6.7V46.6z
			 M62.8,30.7l-8.2-19.6l-7.9,19.6H62.8z"/>
	</g>
	<g>
		<path class="st1" d="M81.3,46.6c1.8-0.5,2.4-1.9,2.4-6.8V13.1c0-4.9-0.6-6.3-2.4-6.8V5.6h14.3c16.4,0,22.9,10.5,22.9,20.1
			c0.1,12.6-8.4,21.7-21.6,21.7H81.3V46.6z M92.5,46.5h4.4c10.5,0,16.2-5.9,16.2-18.4c0-11.9-7.1-21.6-20.4-21.6h-4.1v35.7
			C88.6,44.9,89.2,46.5,92.5,46.5z"/>
	</g>
	<g>
		<path class="st1" d="M126.9,46.6c1.8-0.5,2.4-1.9,2.4-6.8V13.1c0-4.9-0.6-6.3-2.4-6.8V5.6h9.7v0.8c-1.9,0.5-2.4,1.9-2.4,6.8v11.6
			h22.8V13.1c0-4.9-0.6-6.3-2.4-6.8V5.6h9.7v0.8c-1.9,0.5-2.4,1.9-2.4,6.8v26.6c0,4.9,0.5,6.3,2.4,6.8v0.8h-9.7v-0.8
			c1.8-0.5,2.4-1.9,2.4-6.8V25.7h-22.8v14.1c0,4.9,0.5,6.3,2.4,6.8v0.8h-9.7V46.6z"/>
	</g>
	<g>
		<path class="st1" d="M168.4,46.6c1.7-0.5,3.2-1.7,5-6.3l11.8-29.1c0.4-1.1,0.4-1.9-0.1-2.8l-0.5-1.3l4.5-2l14.7,35.3
			c1.9,4.5,3.3,5.7,4.5,6.2v0.8h-9.3v-0.8c1.9-0.5,1.4-1.7-0.5-6.2l-3.6-8.8h-16.8l-3.5,8.7c-1.6,3.9-1.3,5.9,0.7,6.3v0.8h-6.7V46.6
			z M194.4,30.7l-8.2-19.6l-7.9,19.6H194.4z"/>
	</g>
	<g>
		<path class="st1" d="M235.1,38.2c-3.5-8.2-3.9-12.4-11.1-12.4h-3.8v14c0,4.9,0.5,6.3,2.4,6.8v0.8h-9.7v-0.8
			c1.9-0.5,2.4-1.9,2.4-6.8V13.1c0-4.9-0.5-6.3-2.4-6.8V5.6h11.8c12.1,0,15.7,4,15.7,9.3c0,5.6-4.1,9.9-11.8,10.8
			c7.3,1,8.5,4.6,11.3,11.9c2.9,7.2,4.1,9.1,6.1,9.1c0.4,0,0.7,0,1-0.1v0.7c-0.9,0.3-2.4,0.4-3.6,0.4
			C238.7,47.8,237.8,44.4,235.1,38.2z M225.2,24.9c6.9,0,10.1-3.6,10.1-8.7c0-5.3-3.5-9.8-12.3-9.8c-0.9,0-1.9,0.1-2.8,0.1v18.3
			H225.2z"/>
	</g>
	<g>
		<path class="st1" d="M251.7,26.4c0-12.2,8.6-21.3,21.3-21.3c10.1,0,21.1,6.9,21.1,21.6C294.1,41.4,283,48,273,48
			C262.8,48,251.7,41.2,251.7,26.4z M275.5,46.5c9.6,0,14.3-6.9,14-15.9c-0.4-12.5-8.2-24.1-18.9-24.1c-9.1,0-14.4,6.7-14,16.5
			C256.9,34.9,264.8,46.5,275.5,46.5z"/>
	</g>
</g>
</svg>
